<?xml version="1.0" encoding="UTF-8"?>
<svg id="Capa_2" data-name="Capa 2" xmlns="http://www.w3.org/2000/svg" width="101.98" height="106" viewBox="0 0 101.98 106">
  <g id="Layer_2" data-name="Layer 2">
    <g>
      <path d="M49.57,42.02c19.6-1.06,32.35,20.41,22.08,37.21-9.03,14.77-30.51,15.53-40.59,1.45-11.25-15.71-.69-37.62,18.51-38.66h0ZM49.19,44.82c-16.18,1.18-25.36,19.54-16.56,33.27,8.84,13.8,29.27,13.1,37.2-1.18,8.39-15.1-3.51-33.35-20.65-32.09h0Z"/>
      <path d="M95.37,70.09c.31.31-2.37,4.07-2.75,4.56-2.93,3.77-6.89,7.28-11.87,7.64-.06-.43.19-.74.36-1.1.43-.9,1.23-2.05,1.82-2.88,3.01-4.18,7.25-7.39,12.44-8.23h0Z"/>
      <path d="M21.11,82.29c-6.86-.53-11.85-6.56-14.88-12.21,6.74,1.01,12.12,6.2,14.88,12.21Z"/>
      <path d="M93.21,59.4c.3.35-1.23,4.4-1.5,5.04-1.84,4.39-4.79,8.97-9.56,10.47-.28-.32,1.08-4.21,1.34-4.83,1.87-4.63,5.09-8.64,9.73-10.68h0Z"/>
      <path d="M19.59,74.92c-4.48-1.42-7.31-5.5-9.18-9.58-.34-.76-2.24-5.53-1.88-5.94,4.88,2.17,8.19,6.48,10.01,11.41.2.54,1.29,3.83,1.05,4.1h0Z"/>
      <path d="M19.59,65.12c-6.09-2.84-8.56-10.45-9.41-16.66.25-.02.45.18.65.3,5.3,3.31,8.38,10.29,8.76,16.36h0Z"/>
      <path d="M91.55,48.47c-.19,2.37-.86,4.8-1.68,7.02-1.44,3.89-3.76,7.93-7.72,9.63.39-5.71,2.92-11.74,7.44-15.38.21-.17,1.83-1.43,1.97-1.28h0Z"/>
      <path d="M90.03,83.31c.08.3-.08.21-.16.29-2.73,2.45-8.29,5.43-11.97,5.69-1.65.12-3.46.02-5.03-.52-.2-.26,3.21-2.58,3.52-2.77,4.16-2.52,8.8-3.66,13.64-2.69h0Z"/>
      <path d="M28.87,88.78c-4.46,1.44-8.89-.09-12.8-2.27-1.18-.66-3.23-1.91-4.15-2.84-.11-.11-.28-.11-.21-.36l3.63-.39c3.63.13,6.94,1.22,10.02,3.09.32.19,3.73,2.5,3.52,2.77h0Z"/>
      <path d="M56.59.52v10.81h-2.04s.03-.65,0-.76c-1.65,1.75-4.52,1.12-5.6-.95-1.94-3.73,1.8-7.76,5.47-5.41V.52h2.16,0ZM52.36,5.51c-2.24.24-2.39,3.64-.13,4.01,3.11.5,3.18-4.34.13-4.01Z"/>
      <path d="M33.06,10.82v3.56h-2.16V3.7h1.91s-.03.65,0,.76c1.85-1.63,4.71-1.08,5.79,1.14,1.75,3.62-2.03,7.68-5.53,5.22h0ZM34.56,5.51c-3.21.35-1.42,5.61,1.42,3.71,1.79-1.19.76-3.95-1.42-3.71Z"/>
      <path d="M72.96,90.34c3.12-.26,6.17.52,8.8,2.19,0,.31-3.83,1.26-4.34,1.38-3.69.81-8.87,1.43-12.36-.31-.18-.09-.58-.2-.33-.42,1.62-1.43,6.08-2.65,8.23-2.83Z"/>
      <path d="M26.3,90.34c3.66-.3,7.81.9,10.83,2.95-.73.56-1.68.8-2.56.99-3.88.88-8.28.23-12.08-.84-.56-.16-1.98-.52-2.39-.79-.17-.11-.14-.14,0-.25.45-.37,2.33-1.16,2.95-1.37,1.03-.35,2.16-.6,3.25-.69h0Z"/>
      <path d="M45.65,11.33s.03-.61,0-.76c-.5.13-.66.59-1.18.79-4.26,1.67-7.01-4.79-3.31-7.26,1.42-.95,3.07-.63,4.49.11.03-.04-.03-.51,0-.51h1.91v7.63c-.28-.05-1.84.07-1.91,0h0ZM42.13,9c1.93,1.93,4.87-1.15,2.89-2.95-2.05-1.87-4.68,1.16-2.89,2.95Z"/>
      <path d="M24.67,68.31c-.2.22-1.56-1.22-1.72-1.4-3.11-3.6-3.49-9.05-3.24-13.61.13-.15.83.63.95.76,3.53,3.75,4.49,9.25,4,14.24h0Z"/>
      <path d="M82.27,75.94c.23.22-2.36,3.87-2.67,4.26-2.38,2.93-5.51,5.44-9.4,5.79-.3-.34,2.16-3.78,2.54-4.26,2.39-2.95,5.74-5.17,9.53-5.79Z"/>
      <path d="M31.54,85.98c-3.89-.35-7.03-2.87-9.4-5.79-.31-.38-2.9-4.04-2.67-4.26,4.15.73,7.45,3.07,9.97,6.37.32.42,2.38,3.38,2.11,3.67h0Z"/>
      <path d="M83.41,66.27c.24.27-1.06,3.36-1.29,3.86-1.65,3.55-4.3,7.15-8.25,8.22,1-5.17,4.51-10.21,9.53-12.08h0Z"/>
      <path d="M27.85,78.35c-5.35-1.58-8.15-7.11-9.66-12.08,3.95,1.33,6.86,4.7,8.54,8.43.22.49,1.38,3.35,1.12,3.65h0Z"/>
      <path d="M81.76,53.3c.28,4.35-.08,9.49-2.69,13.14-.16.22-1.76,2.15-2.01,1.86-.51-5.19.54-10.9,4.26-14.75.13-.14.22-.3.45-.25h0Z"/>
      <path d="M79.05,3.5c5.47-.06,5.51,8.03.11,8.1s-5.57-8.04-.11-8.1ZM78.81,5.51c-2.48.36-2.13,4.36.59,4.03,2.44-.29,2.07-4.42-.59-4.03Z"/>
      <path d="M63.71,97.17v1.78h-3.94l-.13,1.65c2.39-1.48,4.69.24,4.31,2.98-.46,3.36-6.49,3.21-6.22-.43h1.91c.07,0-.07.87.83,1.01,1.93.3,2.06-2.31.44-2.48-.93-.1-1.26.71-1.34.71h-1.84l.38-5.21h5.6Z"/>
      <polygon points="21.87 .52 21.87 2.68 18.95 2.68 18.95 11.33 16.66 11.33 16.66 2.68 13.74 2.68 13.74 .52 21.87 .52"/>
      <path d="M10.18,30.53c-1.6.14-1.1-.04-1.63-.98-2.05-3.64-7.56-1.61-7.14,3.2.34,3.91,5.39,5.29,7.23,1.77.09-.17.25-.77.29-.79.17-.11.98.04,1.25-.02-.4,3.4-4.06,4.9-7.08,3.58-4.25-1.85-4.1-8.79.31-10.42,2.9-1.07,6.41.39,6.77,3.66h0Z"/>
      <path d="M63.07,29.9l1.27,5.98,1.58-5.85c.13-.18,1.17-.19,1.35-.07.26.18,1.33,5.33,1.58,6.05l1.34-6.1h1.39s-1.92,7.61-1.92,7.61c-.36-.03-1.39.14-1.58-.11l-1.4-5.35-1.61,5.45h-1.5s-1.92-7.42-1.92-7.42c-.01-.27,0-.16.19-.19.37-.05.83.04,1.21,0h0Z"/>
      <path d="M94.73,26.72v10.81c-.21-.04-1.22.05-1.27,0-.06-.06.1-1.14-.06-1.15-1.32,1.96-4.42,1.77-5.78-.06-2.3-3.1.52-7.7,4.29-6.45.59.19,1.02.68,1.56.92v-4.07h1.27,0ZM90.12,30.95c-3.03.51-2.61,5.92.84,5.68,3.62-.25,3.35-6.39-.84-5.68Z"/>
      <path d="M61.55,37.53c-.36-.05-1.08.13-1.34-.12-.3-.3-.72-2.16-.96-2.66h-4.86c-.3.1-.94,2.65-1.12,2.77s-1.09-.05-1.38.02l4.09-10.79c.45.01,1.35-.19,1.62.18l3.95,10.61h0ZM58.75,33.59l-1.97-5.34-1.97,5.34h3.94,0Z"/>
      <path d="M47.02,96.96c5.27-.56,5.75,7.18.72,7.47-5.03.28-5.53-6.96-.72-7.47h0ZM47.28,98.73c-2.36.23-2.15,3.96.21,3.92,2.61-.05,2.45-4.18-.21-3.92Z"/>
      <path d="M70.83,8.79s-.07.44.24.71c.79.67,2.24-.42.73-1.12-1.04-.48-2.29-.34-2.87-1.58-1.47-3.14,4.03-4.61,5.2-1.9.12.28.43.94.04,1.06-.18.06-1.56.06-1.74,0-.21-.07-.31-.48-.52-.62-.68-.46-1.63.38-.67.93,1.04.59,2.91.39,3.24,1.97.7,3.41-4.11,4.46-5.55,1.99-.13-.22-.57-1.44-.21-1.44.3,0,2.03-.08,2.1,0h0Z"/>
      <path d="M59.58,3.7l1.53,4.96,1.53-4.96h2.23l-2.49,7.64c-.49-.1-2.29.16-2.53-.13l-2.48-7.51h2.23Z"/>
      <path d="M80.11,37.53c-.21-.04-1.22.05-1.27,0-.06-.06.1-1.14-.06-1.15-1.83,2.48-5.67,1.47-6.46-1.42-1.11-4.08,3.47-7.07,6.52-4.04.04-.19-.05-.97,0-1.02.05-.05,1.06.04,1.27,0v7.63h0ZM75.5,30.95c-2.74.46-2.8,5.22.28,5.64,4.06.55,4.18-6.39-.28-5.64Z"/>
      <path d="M39.17,24.43c-.21-.04-1.22.05-1.27,0-.06-.06.1-1.14-.06-1.15-1.85,2.49-5.65,1.46-6.46-1.42-1.12-3.96,3.55-7.16,6.46-4.04.16,0,0-.95.06-1.02.05-.05,1.06.04,1.27,0v7.63ZM34.56,17.85c-2.92.5-2.69,5.74.72,5.68,3.66-.07,3.52-6.4-.72-5.68Z"/>
      <path d="M13.1,30.66c1.31-1.32,3.83-1.4,4.73.42.06.13.36.98.36,1.04v5.4h-1.4v-5.4c0-.65-1.2-1.34-1.83-1.32-.59.02-1.86.69-1.86,1.32v5.4h-1.4v-10.62c0-.28,1.4-.28,1.4,0v3.75h0Z"/>
      <path d="M67.27,20.87h-6.36c0,2.17,2.47,3.5,4.2,2.1.76-.61.51-1.38,1.91-1.08-.91,4.13-6.95,3.54-7.36-.71-.57-5.85,8-6.25,7.61-.3ZM66,19.85c-.31-2.9-4.65-2.9-4.96,0h4.96Z"/>
      <path d="M48.96,20.87c-.13,2.26,2.59,3.52,4.26,2.04.72-.64.47-1.29,1.84-1.02-.87,4.05-6.95,3.53-7.37-.57-.57-5.55,6.57-6.27,7.47-1.87.05.24.23,1.43-.03,1.43h-6.17ZM49.08,19.85h4.83c-.05-2.89-4.65-2.9-4.83,0h0Z"/>
      <path d="M48.19,33.97h-6.23c-.09,2,1.82,3.2,3.65,2.44.84-.35,1.17-1.41,1.27-1.43.31-.07.84.06,1.18,0-.92,3.86-6.55,3.66-7.34-.22-1.25-6.14,7.91-7.06,7.47-.8h0ZM46.92,32.95c-.24-2.95-4.53-2.84-4.96,0h4.96Z"/>
      <path d="M37.77,99.46c.18-4.29,7.62-2.71,4.9,1.4l-1.85,1.65h2.54v1.65h-5.59l.06-1.27c.64-.68,3.07-2.42,3.31-3.17.39-1.2-1.08-1.51-1.44-.67-.06.13,0,.41-.03.41h-1.91Z"/>
      <path d="M51.5,104.17c.03-.3-.05-.66,0-.95.1-.52,2.88-2.48,3.36-3.25.68-1.07-.5-1.81-1.15-1.15-.18.19-.18.55-.39.63-.39.14-1.24-.06-1.7.02-.24-3.33,5.66-3.39,5.47-.07-.09,1.52-1.47,2.17-2.42,3.12h2.42v1.65h-5.59,0Z"/>
      <path d="M20.77,36.59c-3.48-3.57,1.56-9.28,5.55-6,4.31,3.54-1.62,10.03-5.55,6ZM21.79,31.6c-1.37,1.37-1.03,4.12.88,4.81,2.41.87,4.31-1.26,3.64-3.64-.53-1.9-3.14-2.55-4.53-1.17h0Z"/>
      <path d="M39.55,32.44c-.35-.06-.88.08-1.19,0-.09-.02-.39-.96-1.14-1.3-2.62-1.18-4.54,1.54-3.54,3.93.65,1.55,3.02,2.07,4.16.8.24-.27.42-.84.46-.87.12-.1,1,.03,1.25-.02-.2,2.38-2.85,3.24-4.9,2.55-3.29-1.11-3.39-6.27-.16-7.54,2.05-.81,4.88.01,5.06,2.45h0Z"/>
      <path d="M101.72,31.93c-.24-.05-1.15.08-1.26-.01-.04-.03-.05-.5-.33-.75-.96-.89-3.08-.06-2.17,1.16.78,1.04,4.06.6,4.02,2.97-.06,3.12-5.39,3.44-5.7.1-.06-.57,1.04-.51,1.26-.35.14.1.1.72.43,1.1,1,1.14,3.22.22,2.55-1.28-.41-.9-3.48-.64-3.94-2.42-.87-3.31,4.97-3.82,5.15-.51h0Z"/>
      <path d="M79.22,18.83c-.24-.05-1.15.08-1.26-.01-.03-.02-.07-.46-.26-.69-.84-.97-3.06-.23-2.3,1.03.63,1.05,3.81.6,4.07,2.8.39,3.34-5.52,3.73-5.66.31-.02-.55,1.02-.48,1.23-.33.14.1.1.72.43,1.1,1.04,1.18,3.37.09,2.54-1.27-.64-1.05-3.46-.61-3.93-2.42-.87-3.29,5.04-3.83,5.15-.51h0Z"/>
      <polygon points="26.71 13.62 26.71 14.89 23.4 14.89 23.4 24.43 22.13 24.43 22.13 14.89 18.82 14.89 18.82 13.62 26.71 13.62"/>
      <path d="M86.09,3.7c.06.06-.1,1.01.06,1.02.38-1.07,1.49-1.07,2.48-1.02v1.97c0,.33-1.49.12-1.82.22-.22.06-.6.61-.6.8v4.64h-2.16V3.7c.3.05,1.96-.07,2.04,0h0Z"/>
      <path d="M24.16,3.7c.06.06-.1,1.15.06,1.15.36-1.16,1.4-1.23,2.48-1.15v1.97c0,.43-1.7-.12-2.15.52-.04.06-.27.59-.27.62v4.52h-2.16V3.7c.3.05,1.96-.07,2.04,0h0Z"/>
      <path d="M29.25,87c3.78-.6,7.82.89,10.55,3.5-1.94.77-4.34.11-6.19-.68-1.51-.64-3.23-1.62-4.36-2.82h0Z"/>
      <path d="M72.48,87c-2.3,2.16-6.12,4.07-9.34,3.81-.19-.02-1.21-.15-1.21-.32,2.77-2.58,6.74-4.1,10.55-3.5Z"/>
      <polygon points="41.69 16.82 43.81 22.78 45.76 16.88 47.05 16.8 44.49 24.41 42.97 24.36 40.45 17.11 40.44 16.8 41.69 16.82"/>
      <rect x="65.61" y="3.7" width="2.16" height="7.63"/>
      <rect x="27.47" y="3.7" width="2.16" height="7.63"/>
      <path d="M62.56,92.98c-.09.23-.61.31-.83.37-2.06.55-4.78.63-6.75-.22-.21-.09-1.53-.75-1.31-1.04,3.01-.92,6.18-.79,8.9.89h0Z"/>
      <path d="M48.07,92.09c.25.27-1.13.96-1.31,1.04-1.42.61-3.05.72-4.58.6-.35-.03-2.88-.43-2.87-.68,2.48-1.89,5.89-1.79,8.77-.95h0Z"/>
      <rect x="56.84" y="13.62" width="1.27" height="10.81"/>
      <path d="M68.79,16.8c.75.09,1.48-.37,1.27.64.03.05.66-.64.95-.64h1.84c.33,2.05-1.03.96-2.17,1.33-.27.09-.63.67-.63.9v5.4h-1.27v-7.63h0Z"/>
      <path d="M82.14,29.9c.63.04,1.4-.27,1.27.64.47-.63,1.9-.84,2.59-.62.38.12.24,1.25.02,1.25h-1.91c-.22,0-.7.61-.7.83v5.53h-1.27v-7.63h0Z"/>
      <path d="M26.58,16.8c.63.04,1.4-.27,1.27.64.47-.63,1.9-.84,2.59-.62.38.12.24,1.25.02,1.25h-1.91c-.22,0-.7.61-.7.83v5.53h-1.27v-7.63h0Z"/>
      <rect x="29.25" y="29.9" width="1.4" height="7.63"/>
      <path d="M50.71,91.98c1.93-.22,2.22,2.69.21,2.77-1.83.07-2.07-2.56-.21-2.77Z"/>
      <path d="M28.2.04c1.87-.36,2.35,2.55.46,2.77-1.76.21-2.12-2.45-.46-2.77Z"/>
      <path d="M65.66.44c1.18-1.26,3.17.46,2.12,1.8-1.23,1.57-3.41-.43-2.12-1.8Z"/>
      <path d="M80.87,16.93c-.16-1.13.24-.56.76-.96.81-.95-.3-.52-.62-1.03-.86-1.35,1.39-2.32,1.74-.59.28,1.37-.35,2.72-1.88,2.58h0Z"/>
      <path d="M29.72,26.74c1.3-.27,1.53,1.57.58,1.86-1.38.42-1.85-1.59-.58-1.86Z"/>
      <path d="M67.65,58.9l-2.53,2.88c1.01,1.35,1.97,2.54,2.35,4.24,1.66,7.39-6.08,12.98-12.62,9.19-.28-.16-1.13-.96-1.36-.91l-2.57,2.78c-.24.04-2.32-2.43-2.66-2.79-1.95,1.58-4.01,2.67-6.61,2.55-7.68-.35-10.82-10.18-4.89-14.95l-2.67-2.99h6.04c.08,0,1.1-.71,1.33-.83,5.82-2.98,11.85-3.46,17.85-.55.41.2,2.17,1.38,2.31,1.38h6.04,0ZM57.1,59.66c-.01-.18-.19-.2-.31-.26-3.12-1.42-8.54-1.48-11.68-.09-.18.08-.42.13-.47.35,2.44.86,4.57,2.77,5.58,5.17l.72,2.08c.43-3.33,3.04-6.21,6.17-7.25h0ZM42.07,62.37c-7.54.56-6.66,11.97.85,11.41,7.36-.56,6.65-11.97-.85-11.41ZM58.59,62.36c-7.08.78-6.35,11.51.73,11.42,7.82-.1,7.22-12.3-.73-11.42Z"/>
      <path d="M41.8,65.16c4.53-.77,4.77,5.96.63,5.9-3.63-.05-3.8-5.36-.63-5.9Z"/>
      <path d="M58.59,65.16c4.5-.78,4.91,5.74.83,5.91-3.65.16-4.12-5.35-.83-5.91Z"/>
    </g>
  </g>
</svg>