<svg viewBox="0 0 225 70" xmlns="http://www.w3.org/2000/svg"><path d="m130.36 59.47a16 16 0 0 0 -2.21-.16h-.06a16.2 16.2 0 0 0 -2.3.18l-.4 1a14.17 14.17 0 0 1 5.37 0z" fill="#8d724e"/><path d="m24.45 58.39a16.69 16.69 0 0 0 -3.26-.39h-.06a16.68 16.68 0 0 0 -3.25.34v1a13.7 13.7 0 0 1 3.29-.34 14.92 14.92 0 0 1 3.29.39z" fill="#8d724e"/><path d="m3.09 52.4a14.72 14.72 0 0 0 5 .9 14.71 14.71 0 0 0 5-.9v1a16 16 0 0 1 -4.94.81h-.15a16 16 0 0 1 -4.94-.81z" fill="#8d724e"/><path d="m74.07 52.4a14.17 14.17 0 0 0 9.93 0v1a16 16 0 0 1 -4.94.81h-.06a16 16 0 0 1 -4.94-.81z" fill="#8d724e"/><path d="m134.59 52.4a14.17 14.17 0 0 0 9.93 0v1a16 16 0 0 1 -4.94.81h-.06a16 16 0 0 1 -4.94-.81z" fill="#8d724e"/><path d="m189.92 52.4a14.17 14.17 0 0 0 9.93 0v1a16 16 0 0 1 -4.94.81h-.06a16 16 0 0 1 -4.94-.81z" fill="#8d724e"/><path d="m172.88 58.39a16.69 16.69 0 0 0 -3.26-.34h-.06a16.68 16.68 0 0 0 -3.25.34v1a13.7 13.7 0 0 1 3.28-.36 14.92 14.92 0 0 1 3.29.39z" fill="#8d724e"/><path d="m69.84 59.47a16 16 0 0 0 -2.21-.16h-.06a16.2 16.2 0 0 0 -2.3.18l-.4 1a14.17 14.17 0 0 1 5.37 0z" fill="#8d724e"/><path d="m116.7 59.47a10.93 10.93 0 0 0 5.17 0v-.77a12 12 0 0 1 -5.17 0z" fill="#8d724e"/><path d="m34.71 56.06a10.93 10.93 0 0 0 0 5.17h.78a12 12 0 0 1 0-5.17z" fill="#8d724e"/><path d="m45.41 53.56a10.93 10.93 0 0 0 5.17 0v-.78a12 12 0 0 1 -5.17 0z" fill="#8d724e"/><path d="m57.72 53.56a10.93 10.93 0 0 0 5.17 0v-.78a12 12 0 0 1 -5.17 0z" fill="#8d724e"/><path d="m92.17 56.06a10.93 10.93 0 0 0 0 5.17h.83a12 12 0 0 1 0-5.17z" fill="#8d724e"/><path d="m152.58 56.06a10.93 10.93 0 0 0 0 5.17h.78a12 12 0 0 1 0-5.17z" fill="#8d724e"/><path d="m207.55 56.06a10.93 10.93 0 0 0 0 5.17h.78a12 12 0 0 1 0-5.17z" fill="#8d724e"/><g fill="#231f20"><path d="m134.15 64.41v-.78h-1.05l-4.31-10.62h-1.28l-4.4 10.62h-1.05v.78h3.79v-.78h-1.74l1.33-3.23.31-.77 2.35-5.71 2.31 5.71.29.77 1.31 3.23h-1.74v.78z"/><path d="m17.91 53.78h1.74v-.78h-4.28v.77h1.57v9.86h-1.57v.77h4.28v-.77h-1.74zm9.06 0v-.78h-4.29v.77h1.74v9.86h-1.74v.77h4.21v-.77h-1.49v-9.85z"/><path d="m13 56.51v-3.12c-.29.1-.58.19-.87.27v2.84z"/><path d="m4 53.66c-.29-.08-.58-.17-.87-.27v3.12h.87z"/><path d="m7.52 63.64h-1.91v.77h4.81v-.77h-1.91v-9.45h-1z"/><path d="m60.8 53.79-2.56 10.62h-1.33l-2.71-10.36h-.03l-2.85 10.36h-1.31l-2.49-10.62h.96l2.19 9.53h.04l2.74-10.29h1.43l2.7 10.29h.03l2.25-9.53z"/><path d="m100.79 53.78h1.9c1.88 0 3.38.1 3.38 2.27s-1.76 2.47-3.38 2.47h-1.9zm-2.54 10.62h4.11v-.77h-1.57v-4.35h2c2 0 2.15.24 2.63 1.76l1.08 3.36h1.78v-.77h-.92l-.8-2.35c-.66-2-.73-2-1.91-2.34 1.5-.24 2.56-.85 2.56-2.87 0-2.84-2.49-3-4.67-3h-4.29v.77h1.57v9.86h-1.57z"/><path d="m118.79 54.72a4.22 4.22 0 0 0 -3.65-1.88c-3.41 0-5.39 2.68-5.39 6 0 2.75 1.78 5.75 4.9 5.75 1.79 0 3.19-.31 4.18-2v1.81h1v-4.85h-1c.1 2.53-1 4.27-3.64 4.27-2.84 0-4.39-2.18-4.39-5s1.2-5.22 4.37-5.22a3.29 3.29 0 0 1 3.62 3.47h.87v-4.07h-.87z"/><path d="m178.12 58.61c0-2.68 1.28-5.06 4.42-5.06s4.46 2.34 4.46 5.06c0 3-1.36 5.19-4.42 5.19s-4.42-2.2-4.42-5.19m-1.08 0c0 3.52 1.9 6 5.51 6s5.51-2.44 5.51-6-2-5.78-5.49-5.78-5.51 2.3-5.51 5.78"/><path d="m212.99 64.41h8.68v-3.39h-.87v2.61h-5.27v-9.86h2.09v-.76h-4.63v.76h1.57v9.86h-1.57z"/><path d="m146.85 64.41h9.11v-3.56h-.87v2.78h-5.7v-4.59h2.94v-.77h-2.94v-4.5h5.59v2.79h.87v-3.55h-9v.76h1.57v9.86h-1.57z"/><path d="m201.81 64.41h9.11v-3.56h-.88v2.78h-5.68v-4.59h2.93v-.77h-2.93v-4.5h5.58v2.79h.87v-3.55h-9v.76h1.56v9.86h-1.56z"/><path d="m86.44 64.41h9.11v-3.56h-.87v2.78h-5.7v-4.59h2.95v-.77h-2.95v-4.5h5.59v2.79h.87v-3.55h-9v.76h1.57v9.86h-1.57z"/><path d="m28.98 64.41h9.11v-3.56h-.87v2.78h-5.69v-4.59h2.93v-.77h-2.93v-4.5h5.58v2.79h.87v-3.55h-9v.76h1.56v9.86h-1.56z"/><path d="m84 56.51v-3.12c-.29.1-.58.19-.87.27v2.84z"/><path d="m74.94 53.66c-.29-.08-.58-.17-.87-.27v3.12h.87z"/><path d="m78.52 63.64h-1.93v.77h4.81v-.77h-1.91v-9.45h-1z"/><path d="m144.53 56.51v-3.12c-.29.1-.58.19-.87.27v2.84z"/><path d="m135.46 53.66c-.29-.08-.58-.17-.87-.27v3.12h.87z"/><path d="m139 63.64h-1.91v.77h4.81v-.77h-1.9v-9.45h-1z"/><path d="m199.85 56.51v-3.12c-.29.1-.58.19-.87.27v2.84z"/><path d="m190.79 53.66c-.29-.08-.58-.17-.87-.27v3.12h.87z"/><path d="m194.35 63.64h-1.91v.77h4.81v-.77h-1.91v-9.45h-1z"/><path d="m166.36 53.78h1.74v-.78h-4.28v.77h1.53v9.86h-1.57v.77h4.28v-.77h-1.7zm9.06 0v-.78h-4.28v.77h1.74v9.86h-1.74v.77h4.21v-.77h-1.5v-9.85z"/><path d="m73.63 64.41v-.78h-1.05l-4.32-10.62h-1.27l-4.41 10.62h-1.04v.78h3.8v-.78h-1.75l1.32-3.23.31-.77 2.36-5.71 2.3 5.71.29.77 1.31 3.23h-1.74v.78z"/></g><path d="m107.88 5.64c0-.29 1.71-.63 3.46-.66h4.16s3.42.08 3.42.69c0 0 .51.48-1.86.86 0 0-.51.13 0 .2 0 0 4.16.51 4.16 1.3 0 0 .23 1.3-6.45 1.52 0 0-.7.15 0 .29 0 0 8.43 1.3 8.58 2.74 0 0 .55 2.22-14.54 3 0 0-3.34.2 0 .66 0 0 17.88 1.69 16.75 3.45 0 0 .74 1.66-16.32 3.14 0 0-7 .64-3.26 1.5 0 0 3.42 1 16.91 2.47 0 0 4.9.5 4.9 1.53 0 0 .31.45-1.63.71l-18.42 2.24s-10.49 1.65 0 2.78a131.74 131.74 0 0 0 15.11.84s7.09.21 6.87.56c0 0 .08.2-1.12.21 0 0-14 .07-23.16 1 0 0-7.5.76 0 1.39 0 0 4.16.53 22.74.84 0 0 1.25 0 1.27.11s.4.2-1.22.2c0 0-16.85 0-22.45.62 0 0-3.76.42 0 .72 0 0 1.49.33 7.66.17 0 0 13.23-.68 14.08.29 0 0 1.6.74-9.11.5 0 0-8.62-.34-12 .13 0 0-1.26.22 0 .45 0 0 2.13.37 8.95 0 0 0 9.59-.45 10.12.33 0 0 .26.38-1.19.44a130.38 130.38 0 0 1 -14 0 8.76 8.76 0 0 0 -2.62.15s-.56.37 2.53.27c0 0 13-.2 13.16.33 0 0 1.08.46-2.56.42 0 0 .73.46-.35.58 0 0 .26.34-1.66.34 0 0 .35.35-.56.35 0 0 .17.4-1.29.4h-6.94s-.44 0-.44-.34c0 0-.87.11-.93-.21 0 0-2 .06-2-.22 0 0-.59 0-.56-.45 0 0-2.13.2-2.13-.78 0 0-2.22.17-2.36-.6 0 0-.2-.46.9-.5 0 0-3 .07-3-.73 0 0-.37-.79 2.45-.79 0 0-4.4 0-4.4-1 0 0-.5-.55 5.06-.77l6.56-.26s.82-.16-.2-.21c0 0-13.37-.27-13.37-1.49 0 0-.23-.4 1.6-.57 0 0 7.75-1 25.31-1.4 0 0-14-.49-19.5-1.07 0 0-6-.38-5.86-1.47 0 0-.59-.81 6.93-1.7 0 0 11-1 16.47-2.18 0 0 3.55-.58 0-1.47a93.52 93.52 0 0 0 -11.37-2s-7.37-.83-8.28-.86c-.06 0-4.11-.39 0-1.09 0 0 4.11-.66 11.89-1.59 0 0 9.24-1 6.67-2.86a30.55 30.55 0 0 0 -7.72-1.92s-6.41-.9-9.41-1c0 0-1.52-.21 0-.56 0 0 3.64-.45 8.1-.72 0 0 13.62-1.42 4.51-4.17a27.6 27.6 0 0 0 -4.51-.94s-6.63.44-6.79-.38c0 0-.87-.4 6.7-.24 0 0 4.28.16 5-1 0 0 1.19-.92-3.24-1.12h-4.78s-1.49 0-1.43-.35 1.32-.33 1.32-.33h2.74s.76-.11-.06-.23-2.01-.13-1.99-.49z" fill="#8d724e"/></svg>