<?xml version="1.0" encoding="UTF-8"?> <svg xmlns="http://www.w3.org/2000/svg" xmlns:xlink="http://www.w3.org/1999/xlink" width="363px" height="78px" viewBox="0 0 363 78" version="1.1"><title>Cap City Logo</title><defs><polygon id="path-1" points="0 0 28 0 28 51 0 51"></polygon><polygon id="path-3" points="0 0 37 0 37 51 0 51"></polygon><polygon id="path-5" points="0 78 363 78 363 0 0 0"></polygon></defs><g id="Page-1" stroke="none" stroke-width="1" fill="none" fill-rule="evenodd"><g id="Desktop-Edits" transform="translate(-619, -22)"><g id="Cap-City-Logo" transform="translate(619, 22)"><g id="Group-3"><mask id="mask-2" fill="white"><use xlink:href="#path-1"></use></mask><g id="Clip-2"></g><path d="M22.672177,10.2056643 C22.672177,9.87338295 22.6330112,9.53118655 22.5549339,9.17932934 C22.4608342,8.84679376 22.327823,8.53408829 22.1559003,8.24070445 L19.456765,11.6133474 L19.456765,18.0360127 L22.672177,13.9888921 L22.672177,10.2056643 Z M19.456765,29.9137361 L19.456765,40.3835221 L9.2706002,40.3835221 L6.5714649,43.7269283 C6.82171923,43.9422629 7.07985758,44.0983614 7.34613428,44.1959865 C7.59613428,44.2941201 7.87004069,44.3424242 8.16759919,44.3424242 L19.8321465,44.3424242 C20.223296,44.3424242 20.5910478,44.2453075 20.9354018,44.0495488 C21.2792472,43.873366 21.5844354,43.6196424 21.8507121,43.2868526 C22.1007121,42.9746556 22.3044252,42.602714 22.4608342,42.1725533 C22.6017294,41.7426468 22.672177,41.2829952 22.672177,40.7941069 L22.672177,34.3127139 L26.1772635,29.9137361 L19.456765,29.9137361 Z M24.456002,3.48961512 C23.7988301,2.80573079 23.0788403,2.26802992 22.2965412,1.87676673 C21.4987284,1.50533364 20.6772635,1.31948998 19.8321465,1.31948998 L8.16759919,1.31948998 C7.19710071,1.31948998 6.28179044,1.5541462 5.42141404,2.02320441 C4.54501526,2.49251685 3.78636826,3.12809708 3.14496439,3.92943664 C2.50305188,4.75086053 1.99491353,5.69914623 1.61927772,6.77429375 C1.24389624,7.84969549 1.05595117,8.99348568 1.05595117,10.2056643 L1.05595117,40.7941069 C1.05595117,41.8499328 1.20447609,42.8762677 1.50203459,43.873366 C1.79908444,44.8707185 2.22151577,45.7605308 2.76932859,46.5422945 L5.04603255,43.7269283 C4.52975585,42.8668611 4.27136317,41.8890845 4.27136317,40.7941069 L4.27136317,10.2056643 C4.27136317,9.54135583 4.37309257,8.91543642 4.57655137,8.32866876 C4.77975585,7.74215532 5.06129196,7.22428455 5.42141404,6.77429375 C5.76551373,6.34438728 6.17268566,6.00219088 6.64191251,5.74795879 C7.11139369,5.49423516 7.61953204,5.36661065 8.16759919,5.36661065 L19.8321465,5.36661065 C20.2390641,5.36661065 20.6536114,5.44491414 21.076297,5.60152111 C21.4829603,5.77719548 21.8583418,6.03142757 22.2026958,6.36396315 L24.456002,3.48961512 Z M28,40.7941069 C28,42.1824684 27.7886572,43.4922721 27.3664802,44.7237723 C26.9287894,45.9753569 26.3428281,47.0606737 25.6078332,47.9792143 C24.8575788,48.9175849 23.9898271,49.6507903 23.0048321,50.1788303 C22.0043235,50.7264463 20.9412513,51 19.8158698,51 L8.16047813,51 C7.03484232,51 5.97965412,50.7264463 4.99516785,50.1788303 C4.00991862,49.6507903 3.15005086,48.9277542 2.41505595,48.008451 C1.66480163,47.0899104 1.07833164,46.0045936 0.656408952,44.7532633 C0.218463886,43.5215088 0,42.20179 0,40.7941069 L0,10.2056643 C0,8.81755707 0.218463886,7.49809251 0.656408952,6.24650792 C1.07833164,5.01475344 1.66480163,3.92943664 2.41505595,2.99106599 C3.15005086,2.07252544 4.00991862,1.33906585 4.99516785,0.791704158 C5.97965412,0.263918335 7.03484232,-0.000228808883 8.16047813,-0.000228808883 L19.8158698,-0.000228808883 C20.9412513,-0.000228808883 22.0043235,0.263918335 23.0048321,0.791704158 C23.9898271,1.33906585 24.8575788,2.07252544 25.6078332,2.99106599 C26.3428281,3.92943664 26.9287894,5.01475344 27.3664802,6.24650792 C27.7886572,7.49809251 28,8.81755707 28,10.2056643 L28,20.2356288 L18.4005595,20.2356288 L18.4005595,12.0239322 L9.55239064,12.0239322 L9.55239064,39.0638033 L18.4005595,39.0638033 L18.4005595,28.5940173 L28,28.5940173 L28,40.7941069 Z" id="Fill-1" fill="#C39B66" mask="url(#mask-2)"></path></g><g id="Group-6" transform="translate(31, 0)"><mask id="mask-4" fill="white"><use xlink:href="#path-3"></use></mask><g id="Clip-5"></g><path d="M27.088513,36.4536096 L24.7791086,40.4420007 L27.1367396,48.8883493 L29.470127,44.9291949 L27.088513,36.4536096 Z M18.476017,22.0539111 L16.551383,29.0043588 L20.448617,29.0043588 L18.476017,22.0539111 Z M19.0052066,7.50777501 L19.0052066,19.8250595 C19.0052066,19.8448896 19.0774163,20.0991216 19.2218355,20.5877554 C19.3498316,21.0763892 19.5182338,21.6824782 19.7270421,22.4057682 C19.9353291,23.1491424 20.1678597,23.9504816 20.424634,24.8108026 C20.6652458,25.6904452 20.8975157,26.5217837 21.1222258,27.303547 C21.3305128,28.0855645 21.5150774,28.7503811 21.6756591,29.2977425 C21.8357194,29.8651883 21.931912,30.206876 21.9642369,30.3243312 L16.1666127,30.3243312 L11.5715262,34.3127223 L26.5593233,34.3127223 L19.0052066,7.50777501 Z M15.0357631,1.31951475 L1.82844139,48.5952198 L6.39928417,44.5773379 L17.3933941,5.3666334 L18.909014,5.3666334 L21.290628,1.31951475 L15.0357631,1.31951475 Z M26.6072893,51 L23.7926783,40.9700405 L13.2073217,40.9700405 L10.3927107,51 L0,51 L14.2899446,-0.000203385573 L22.7100554,-0.000203385573 L37,51 L26.6072893,51 Z" id="Fill-4" fill="#C39B66" mask="url(#mask-4)"></path></g><mask id="mask-6" fill="white"><use xlink:href="#path-5"></use></mask><g id="Clip-8"></g><path d="M82.6658211,21.3204223 L91.3341789,21.3204223 L91.3341789,12.0239128 L82.6658211,12.0239128 L82.6658211,21.3204223 Z M95.65652,10.205644 C95.65652,9.87336245 95.6089114,9.53116588 95.5139517,9.17930849 C95.4189919,8.84677275 95.2844013,8.53406712 95.1101798,8.24093737 L92.4029264,11.6133278 L92.4029264,22.640396 L82.3806845,22.640396 L79.1746995,26.6877729 L92.3553178,26.6877729 C92.7984633,26.6877729 93.2259108,26.5804869 93.6379177,26.3651522 C94.0334547,26.1500718 94.3818977,25.856942 94.6827323,25.4852545 C94.9833094,25.1140755 95.2208375,24.6742538 95.3953163,24.1652809 C95.5692805,23.6769008 95.65652,23.1491147 95.65652,22.5819226 L95.65652,10.205644 Z M97.4612698,3.48959143 C96.7965516,2.80570677 96.0602919,2.26800562 95.2527481,1.87674224 C94.4292489,1.50530897 93.5903092,1.31946522 92.7354141,1.31946522 L74.0687475,1.31946522 L74.0687475,48.7124185 L77.3223411,44.7532602 L77.3223411,5.3665879 L92.7354141,5.3665879 C93.6379177,5.3665879 94.4292489,5.69937788 95.1101798,6.3639409 L97.4612698,3.48959143 Z M101,22.5819226 C101,24.0480798 100.770192,25.4364419 100.311349,26.7465006 C99.8519907,28.056305 99.2343664,29.2003499 98.4587331,30.1776186 C97.6668872,31.1553957 96.7489431,31.927499 95.7038712,32.4944368 C94.6590567,33.0616289 93.5427006,33.3450978 92.3553178,33.3450978 L82.6658211,33.3450978 L82.6658211,51 L73,51 L73,0 L92.7354141,0 C93.8592331,0 94.9279806,0.263893043 95.9413992,0.791679129 C96.9388625,1.3390411 97.8176905,2.07250105 98.5776258,2.99104205 C99.3216058,3.9296674 99.9152972,5.01473051 100.3587,6.24648561 C100.786148,7.49807083 101,8.81753604 101,10.205644 L101,22.5819226 Z" id="Fill-7" fill="#C39B66" mask="url(#mask-6)"></path><path d="M107.105698,1.31946522 L107.105698,48.7124185 L110.471778,44.7532602 L110.471778,5.77717294 L114.132854,1.31946522 L107.105698,1.31946522 Z M106,51 L116,51 L116,0 L106,0 L106,51 Z" id="Fill-9" fill="#C39B66" mask="url(#mask-6)"></path><path d="M134.463808,7.6249327 L131.199142,11.6133278 L131.199142,48.7124185 L134.463808,44.7532602 L134.463808,7.6249327 Z M122.072384,1.31946522 L122.072384,9.73658551 L125.622899,5.3665879 L143.924185,5.3665879 L147.141338,1.31946522 L122.072384,1.31946522 Z M139.873242,12.024167 L139.873242,51 L130.126758,51 L130.126758,12.024167 L121,12.024167 L121,0 L149,0 L149,12.024167 L139.873242,12.024167 Z" id="Fill-10" fill="#C39B66" mask="url(#mask-6)"></path><path d="M163.705685,39.0635431 L175.223514,39.0635431 L175.223514,12.0239128 L163.705685,12.0239128 L163.705685,39.0635431 Z M179.587339,10.205644 C179.587339,9.87336245 179.539535,9.53116588 179.444186,9.17930849 C179.348579,8.84677275 179.229457,8.53406712 179.086305,8.24093737 L176.296382,11.6133278 L176.296382,40.3835168 L163.41938,40.3835168 L160.677003,43.7269247 C160.931266,43.9422594 161.19354,44.0986122 161.464083,44.1959831 C161.718088,44.2941168 161.996382,44.3424209 162.29845,44.3424209 L176.70155,44.3424209 C177.083204,44.3424209 177.449096,44.2453042 177.798708,44.0495454 C178.148062,43.8733624 178.458398,43.6196387 178.728941,43.2868487 C178.982687,42.9746516 179.189664,42.6027098 179.348579,42.1725489 C179.507752,41.7426422 179.587339,41.2829904 179.587339,40.7941018 L179.587339,10.205644 Z M181.375452,3.48959143 C180.707752,2.80570677 179.976486,2.26800562 179.181654,1.87674224 C178.386822,1.50530897 177.560207,1.31946522 176.70155,1.31946522 L162.29845,1.31946522 C161.312661,1.31946522 160.382687,1.55412155 159.508527,2.02343423 C158.618088,2.49249267 157.847028,3.12807322 157.195349,3.9296674 C156.543411,4.75083747 156.027132,5.69937788 155.645478,6.7742717 C155.263824,7.84967398 155.073127,8.99371897 155.073127,10.205644 L155.073127,40.7941018 C155.073127,41.8499282 155.224031,42.8762637 155.526357,43.8733624 C155.827907,44.8707154 156.257364,45.7605282 156.813953,46.5422923 L159.127132,43.7269247 C158.602326,42.8668571 158.340052,41.88908 158.340052,40.7941018 L158.340052,10.205644 C158.340052,9.54133517 158.443411,8.91541545 158.650129,8.32864748 C158.856589,7.74213376 159.142636,7.22451696 159.508527,6.7742717 C159.85814,6.34461925 160.271576,6.00216845 160.748579,5.74793623 C161.225581,5.49421248 161.74186,5.3665879 162.29845,5.3665879 L176.70155,5.3665879 C177.114987,5.3665879 177.536434,5.44514566 177.965891,5.60149847 C178.378553,5.77717294 178.752713,6.03140516 179.086305,6.3639409 L181.375452,3.48959143 Z M185,40.7941018 C185,42.182464 184.78553,43.4922683 184.356589,44.7237692 C183.911111,45.9753544 183.314987,47.0606718 182.567959,47.9792128 C181.80491,48.9178381 180.922739,49.6507896 179.92093,50.1790842 C178.903618,50.7264461 177.830491,51 176.70155,51 L162.29845,51 C161.154005,51 160.080879,50.7264461 159.079328,50.1790842 C158.077778,49.6507896 157.203359,48.9178381 156.456331,47.9792128 C155.693282,47.0606718 155.096899,45.9753544 154.6677,44.7237692 C154.222481,43.4922683 154,42.182464 154,40.7941018 L154,10.205644 C154,8.81753604 154.222481,7.49807083 154.6677,6.24648561 C155.096899,5.01473051 155.693282,3.9296674 156.456331,2.99104205 C157.203359,2.07250105 158.077778,1.3390411 159.079328,0.791679129 C160.080879,0.263893043 161.154005,0 162.29845,0 L176.70155,0 C177.830491,0 178.903618,0.263893043 179.92093,0.791679129 C180.922739,1.3390411 181.80491,2.07250105 182.567959,2.99104205 C183.314987,3.9296674 183.911111,5.01473051 184.356589,6.24648561 C184.78553,7.49807083 185,8.81753604 185,10.205644 L185,40.7941018 Z" id="Fill-11" fill="#C39B66" mask="url(#mask-6)"></path><path d="M200.3159,40.3835697 L197.132056,44.3424541 L210.976335,44.3424541 L214.183946,40.3835697 L200.3159,40.3835697 Z M192.061367,1.31971287 L192.061367,48.7124299 L195.29249,44.7530371 L195.29249,5.77739837 L198.806526,1.31971287 L192.061367,1.31971287 Z M191,51 L191,0 L200.598812,0 L200.598812,39.0638568 L216,39.0638568 L216,51 L191,51 Z" id="Fill-12" fill="#C39B66" mask="url(#mask-6)"></path><path d="M267.672177,10.2058473 C267.672177,9.87356746 267.633011,9.5313726 267.554934,9.17951696 C267.461089,8.84698288 267.327823,8.53427881 267.1559,8.24089629 L264.456765,11.6135241 L264.456765,18.0361606 L267.672177,13.9890581 L267.672177,10.2058473 Z M264.456765,29.9138307 L264.456765,40.3835697 L254.2706,40.3835697 L251.571465,43.7269609 C251.821719,43.9422946 252.079858,44.0983924 252.346134,44.196017 C252.596389,44.2941502 252.870295,44.3424541 253.167599,44.3424541 L264.832401,44.3424541 C265.223296,44.3424541 265.591048,44.2453379 265.935402,44.04958 C266.279247,43.873398 266.58469,43.6196755 266.850712,43.2868872 C267.100966,42.9746916 267.304425,42.6027517 267.461089,42.1725929 C267.601729,41.7426884 267.672177,41.2830388 267.672177,40.7941527 L267.672177,34.3127888 L271.177263,29.9138307 L264.456765,29.9138307 Z M269.456002,3.48982827 C268.79883,2.80594701 268.079095,2.26824855 267.296541,1.87698711 C266.498728,1.50555569 265.677263,1.31971287 264.832401,1.31971287 L253.167599,1.31971287 C252.197101,1.31971287 251.282045,1.55436804 250.421414,2.02342414 C249.54527,2.49273448 248.786368,3.12831186 248.144964,3.92964782 C247.503052,4.75106802 246.994914,5.69934947 246.619532,6.77449216 C246.243896,7.84988909 246.056205,8.99367414 246.056205,10.2058473 L246.056205,40.7941527 C246.056205,41.8499738 246.20473,42.8763042 246.502035,43.873398 C246.799084,44.870746 247.221516,45.7605543 247.769329,46.5423145 L250.045778,43.7269609 C249.529756,42.8668976 249.271363,41.8891254 249.271363,40.7941527 L249.271363,10.2058473 C249.271363,9.54154184 249.373093,8.91562523 249.576551,8.3288602 C249.779756,7.74234939 250.061546,7.22448095 250.421414,6.77449216 C250.765514,6.34458762 251.172431,6.00239276 251.641913,5.74816181 C252.111139,5.49443932 252.619532,5.36681538 253.167599,5.36681538 L264.832401,5.36681538 C265.239064,5.36681538 265.653611,5.44511852 266.076297,5.60172478 C266.48296,5.77739837 266.858596,6.03162932 267.202696,6.36416341 L269.456002,3.48982827 Z M273,40.7941527 C273,42.1825079 272.788657,43.4923058 272.36648,44.7238005 C271.928535,45.9753795 271.342828,47.0606914 270.607833,47.9792278 C269.857579,48.9175943 268.989827,49.6507963 268.004832,50.178834 C267.004323,50.7264475 265.941251,51 264.81587,51 L253.160478,51 C252.034842,51 250.979654,50.7264475 249.994914,50.178834 C249.009919,49.6507963 248.150051,48.9277635 247.41531,48.0084644 C246.664802,47.089928 246.078586,46.004616 245.656409,44.7532913 C245.218464,43.5215423 245,42.2018295 245,40.7941527 L245,10.2058473 C245,8.81774632 245.218464,7.49828768 245.656409,6.24670871 C246.078586,5.01495975 246.664802,3.92964782 247.41531,2.99128137 C248.150051,2.07274495 249.009919,1.33928865 249.994914,0.791929414 C250.979654,0.264145958 252.034842,0 253.160478,0 L264.81587,0 C265.941251,0 267.004323,0.264145958 268.004832,0.791929414 C268.989827,1.33928865 269.857579,2.07274495 270.607833,2.99128137 C271.342828,3.92964782 271.928535,5.01495975 272.36648,6.24670871 C272.788657,7.49828768 273,8.81774632 273,10.2058473 L273,20.2357668 L263.40056,20.2357668 L263.40056,12.0241071 L254.552136,12.0241071 L254.552136,39.0638568 L263.40056,39.0638568 L263.40056,28.5941178 L273,28.5941178 L273,40.7941527 Z" id="Fill-13" fill="#C39B66" mask="url(#mask-6)"></path><path d="M280.105698,1.31946522 L280.105698,48.7124185 L283.471778,44.7532602 L283.471778,5.77717294 L287.132588,1.31946522 L280.105698,1.31946522 Z M279,51 L289,51 L289,0 L279,0 L279,51 Z" id="Fill-14" fill="#C39B66" mask="url(#mask-6)"></path><path d="M307.464066,7.6249327 L304.199142,11.6133278 L304.199142,48.7124185 L307.464066,44.7532602 L307.464066,7.6249327 Z M295.072643,1.31946522 L295.072643,9.73658551 L298.623157,5.3665879 L316.924443,5.3665879 L320.141596,1.31946522 L295.072643,1.31946522 Z M312.873242,12.024167 L312.873242,51 L303.126758,51 L303.126758,12.024167 L294,12.024167 L294,0 L322,0 L322,12.024167 L312.873242,12.024167 Z" id="Fill-15" fill="#C39B66" mask="url(#mask-6)"></path><path d="M351.531108,1.31946522 L344.509691,16.6575492 L344.509691,24.6933212 L353.315917,5.5425166 L359.092752,1.31946522 L351.531108,1.31946522 Z M343.448068,27.7435993 L333.585309,6.01182928 L335.769117,1.31946522 L327.831884,1.31946522 L340.231138,28.7699348 L340.231138,48.7711461 L343.448068,44.7532602 L343.448068,27.7435993 Z M348.779083,28.7699348 L348.779083,51 L339.174096,51 L339.174096,29.1512831 L326,0 L336.966877,0 L343.896179,15.2498654 L350.93948,0 L362,0 L348.779083,28.7699348 Z" id="Fill-16" fill="#C39B66" mask="url(#mask-6)"></path><path d="M25.5492191,72.8172102 C25.3231463,72.6119512 25.0305814,72.5093217 24.6981214,72.5093217 L19.285416,72.5093217 L19.285416,75.109269 L24.7646134,75.109269 C25.4029367,75.109269 25.9481711,74.5961215 25.9481711,73.7921904 C25.9481711,73.3816724 25.8151871,73.056679 25.5492191,72.8172102 M24.6712688,67.890731 L19.285416,67.890731 L19.285416,70.4906783 L24.7114198,70.4906783 C25.083775,70.4906783 25.3763399,70.3541021 25.6024127,70.0804235 C25.8018887,69.8235866 25.8949775,69.5330661 25.8816791,69.1735997 C25.8683807,68.4722981 25.4159793,67.890731 24.6712688,67.890731 M31.5335,70.2343677 C31.1746989,70.8672497 30.6560612,71.2435578 29.977587,71.3972389 C30.6292087,71.6540758 31.1348037,72.0816988 31.4803064,72.6974758 C31.7994681,73.2616749 31.9590489,73.8948199 31.9590489,74.6132265 C31.9590489,75.5200502 31.7332318,76.2895083 31.2810861,76.9394952 C30.7887895,77.6407967 30.1773187,78 29.4190541,78 L11,78 L14.5243323,75.0579543 L14.5243323,67.9420457 L11,65 L29.4190541,65 C30.1773187,65 30.8023436,65.3420983 31.2943845,66.0260319 C31.7332318,66.642072 31.972603,67.3946884 31.9991998,68.2670391 C32.0122425,69.0196555 31.8662158,69.6696423 31.5335,70.2343677" id="Fill-17" fill="#C39B66" mask="url(#mask-6)"></path><path d="M48.9947012,68.284144 C48.7673138,68.0273071 48.4596722,67.890731 48.0851519,67.890731 L42.3333333,67.890731 L42.3333333,70.4906783 L48.1252791,70.4906783 C48.4997994,70.4906783 48.7940653,70.353839 49.0214526,70.0801603 C49.2220885,69.8235866 49.3157185,69.532803 49.3023428,69.1735997 C49.2889671,68.8143965 49.195337,68.5236129 48.9947012,68.284144 L48.9947012,68.284144 Z M59,78 L50.1717649,78 C49.8507475,77.7263213 49.6367359,77.0934394 49.5297301,76.1013542 C49.4093486,74.8184855 49.2889671,74.0142912 49.1685856,73.6892978 C48.8876954,72.9027348 48.3526664,72.5093217 47.550123,72.5093217 L42.3333333,72.5093217 L42.3333333,75.109269 L45.7310245,78 L34,78 L37.5445669,75.0576911 L37.5445669,67.9417826 L34,65 L52.5261495,65 C53.475826,65 54.2248665,65.3076254 54.7866469,65.9407704 C55.2815487,66.5049695 55.5356875,67.2062711 55.5490632,68.0446752 C55.5624389,68.882553 55.3083002,69.6012226 54.8133984,70.1998947 C54.2649937,70.8669865 53.5159531,71.1919799 52.5662767,71.2090848 C53.4624502,71.6367078 54.1847393,72.1498553 54.7465197,72.7656323 C55.361803,73.432724 55.6694447,74.1171839 55.6694447,74.8184855 C55.6694447,74.9724297 55.656069,75.126374 55.6293175,75.2803182 L59,78 Z" id="Fill-18" fill="#C39B66" mask="url(#mask-6)"></path><polygon id="Fill-19" fill="#C39B66" mask="url(#mask-6)" points="81 78 60 78 63.5832539 75.0576911 63.5832539 67.9417826 60 65 81 65 81 71.5169733 76.5243131 67.890731 68.4242871 67.890731 68.4242871 70.4906783 73.1436249 70.4906783 75.5099246 68.9683407 75.5099246 74.0316593 73.18419 72.5093217 68.4242871 72.5093217 68.4242871 75.109269 76.5243131 75.109269 81 72.3553774"></polygon><polygon id="Fill-20" fill="#C39B66" mask="url(#mask-6)" points="118 65 113.740815 68.7975547 110.061427 75.7763608 111.705696 78 100.249206 78 101.893734 75.9987247 100.127908 72.0645938 98.1062658 75.7763608 99.5755848 78 88.1188363 78 89.7633642 76.2039837 85.9085077 68.1644096 82 65 94.305579 65 91.2863345 68.3867735 94.5344392 75.0237445 98.2949524 68.3867735 95.1007581 65 106.085272 65 103.066287 68.3867735 106.651332 75.0237445 110.411845 68.3867735 106.880451 65"></polygon><polygon id="Fill-21" fill="#C39B66" mask="url(#mask-6)" points="131 78 119 78 122.581186 75.0576911 122.581186 67.9417826 119 65 131 65 127.419074 67.9417826 127.419074 75.0576911"></polygon><polygon id="Fill-22" fill="#C39B66" mask="url(#mask-6)" points="156 65 152.81675 67.9420457 152.81675 78 147.364925 78 140.083241 70.7985668 140.083241 75.0579543 143.438917 78 133 78 136.515093 75.0579543 136.515093 67.9420457 133 65 142.099299 65 149.421029 72.1327503 149.421029 67.9420457 145.892672 65"></polygon><path d="M177,71.2518108 L173.842322,73.6839799 L173.842322,77.8322506 L172.986864,77.8322506 L171.960619,75.9664771 C170.618605,77.3491485 168.474016,78.0321549 165.540006,77.9988376 C162.605744,77.9652639 160.237485,77.2489401 158.447881,75.8496099 C156.842728,74.600208 156.026994,73.1175844 156.00068,71.401739 C155.974366,69.6525763 156.711158,68.1866114 158.224212,66.9869293 C159.974092,65.6042578 162.421546,64.9379101 165.592634,65.0045448 C168.263504,65.0545209 170.618605,65.6711488 172.671096,66.837001 L173.89495,65.7208686 L173.89495,70.6854153 C173.276571,69.9357741 172.289544,69.2860851 170.908059,68.7694093 C169.526575,68.2532462 168.158248,67.9867071 166.776511,67.9867071 C165.579224,67.9867071 164.539822,68.2199288 163.67146,68.6861159 C162.500488,69.3194025 161.908423,70.2853504 161.908423,71.568326 C161.908423,72.718032 162.434703,73.6173451 163.474105,74.2836928 C164.32931,74.833686 165.250299,75.0833101 166.22417,75.0669077 C167.237258,75.0335903 168.329289,74.6504404 169.473947,73.9341166 L168.973981,73.6006865 L165.987091,71.2518108 L177,71.2518108 Z" id="Fill-23" fill="#C39B66" mask="url(#mask-6)"></path><path d="M206.265493,77.0329085 C205.000273,77.6995295 203.190872,78.0157965 200.864238,77.9993937 C197.830432,77.9658192 195.381357,77.249477 193.531143,75.850111 C191.871393,74.600677 191.027913,73.1180154 191.000704,71.4187852 C190.973495,69.6695776 191.735347,68.1866597 193.299867,67.0038622 C195.109267,65.6042399 197.639968,64.9381314 200.918657,65.0045116 C203.530985,65.0547452 205.802939,65.6211553 207.73478,66.6704235 L209,65.5545188 L209,70.5189364 C208.455819,69.8359125 207.435742,69.2530996 205.938984,68.7530698 C204.415278,68.2366371 202.932386,67.9867503 201.490046,68.0364713 C200.11599,68.0700459 199.027629,68.4532056 198.211358,69.202866 C197.476453,69.8858899 197.109392,70.6688685 197.109392,71.5687173 C197.109392,72.784833 197.667178,73.7010846 198.769143,74.3341311 C199.626228,74.8169893 200.619357,75.0671324 201.735189,75.0671324 C203.163663,75.0671324 204.592137,74.8005864 206.034216,74.2838974 C207.489899,73.767721 208.469424,73.1510773 209,72.4680534 C208.850612,74.6173361 207.938848,76.1499751 206.265493,77.0329085" id="Fill-24" fill="#C39B66" mask="url(#mask-6)"></path><path d="M223.748397,68.7342051 C222.884991,68.1676231 221.966501,67.884332 220.966047,67.884332 C219.951887,67.884332 219.033661,68.1676231 218.197401,68.7342051 C217.19721,69.4174363 216.703835,70.3508866 216.703835,71.5004584 C216.703835,72.6672071 217.19721,73.5837368 218.197401,74.2669681 C219.02022,74.8502142 219.938182,75.1335052 220.966047,75.1335052 C222.00788,75.1335052 222.953251,74.8502142 223.789248,74.2669681 C224.803671,73.5670726 225.310751,72.6338788 225.310751,71.4507222 C225.310751,70.333966 224.789966,69.4174363 223.748397,68.7342051 M228.531393,75.9333857 C226.667532,77.3167688 224.145838,78 220.952605,78 C218.060616,78 215.648561,77.3331766 213.716175,76.0000424 C211.852051,74.7169008 210.94753,73.1835402 211.002349,71.4004733 C211.07061,69.6676553 211.852051,68.2176156 213.37329,67.0677874 C215.155186,65.7177327 217.70429,65.0345015 221.007425,65.0011731 C224.255477,64.9681011 226.777171,65.6344118 228.586213,66.9844665 C230.162535,68.1676231 230.957417,69.6340706 230.998532,71.4173939 C231.039646,73.1835402 230.217355,74.6835725 228.531393,75.9333857" id="Fill-25" fill="#C39B66" mask="url(#mask-6)"></path><polygon id="Fill-26" fill="#C39B66" mask="url(#mask-6)" points="258 78 246.079083 78 249.465972 75.1131259 249.465972 67.904219 244.641368 78 242.934356 78 238.176688 67.904219 238.176688 75.1131259 241.751723 78 231 78 234.561595 75.1131259 234.561595 67.904219 231 65 241.751723 65 244.667988 70.9789961 247.422984 65 258 65 254.438663 67.904219 254.438663 75.1131259"></polygon><path d="M274.327509,68.284144 C274.095075,68.0273071 273.780605,67.890731 273.397772,67.890731 L267.518292,67.890731 L267.518292,70.4906783 L273.43879,70.4906783 C273.821623,70.4906783 274.12242,70.353839 274.354854,70.0801603 C274.559943,69.8235866 274.655651,69.532803 274.641979,69.1735997 C274.628306,68.8143965 274.532598,68.5236129 274.327509,68.284144 M280.234334,71.3288193 C279.659822,72.1159086 278.880484,72.5093217 277.90973,72.5093217 L267.518292,72.5093217 L267.518292,75.109269 L270.991395,78 L259,78 L262.623239,75.0576911 L262.623239,67.9417826 L259,65 L277.937338,65 C278.908092,65 279.673758,65.3934131 280.234334,66.1628712 C280.740221,66.8641728 281,67.7025769 281,68.711767 C281,69.738062 280.740221,70.6104127 280.234334,71.3288193" id="Fill-27" fill="#C39B66" mask="url(#mask-6)"></path><path d="M291.021798,71.978928 L288.898071,67.5488442 L286.560917,71.978928 L291.021798,71.978928 Z M302,78 L288.951491,78 L292.290282,74.613295 L291.996725,73.9975305 L285.505602,73.9975305 L285.185078,74.613295 L288.510771,78 L278,78 L281.365501,75.0577507 L285.692831,67.0014979 L284.236862,65 L295.923144,65 L294.293814,67.2238573 L298.460882,75.0577507 L302,78 Z" id="Fill-28" fill="#C39B66" mask="url(#mask-6)"></path><polygon id="Fill-29" fill="#C39B66" mask="url(#mask-6)" points="326 65 322.816715 67.9420457 322.816715 78 317.364829 78 310.083064 70.7985668 310.083064 75.0579543 313.438777 78 303 78 306.514877 75.0579543 306.514877 67.9420457 303 65 312.099145 65 319.420956 72.1327503 319.420956 67.9420457 315.892815 65"></polygon><polygon id="Fill-30" fill="#C39B66" mask="url(#mask-6)" points="350 65 346.406372 67.9420457 341.090255 73.3303577 341.090255 75.0579543 344.683882 78 332.654878 78 336.248767 75.0579543 336.248767 73.672456 330.593628 67.9420457 327 65 339.557617 65 336.981053 68.3699318 339.869516 71.8422299 342.744679 68.3699318 340.005386 65"></polygon><polygon id="Fill-31" fill="#C39B66" mask="url(#mask-6)" points="228 18 230.472092 22.9376129 236 23.7295659 232 27.5730832 232.944184 33 228 30.4377395 223.055816 33 224 27.5730832 220 23.7295659 225.527908 22.9376129"></polygon></g></g></g></svg> 