<svg width="312" height="87" fill="none" xmlns="http://www.w3.org/2000/svg"><path d="M295.87 22.41v2.38h1.43c3.17 0 4.76 2.54 3.73 5.87l-7.38 23.57-7.3-26.11c-.63-2.06.08-3.33 1.9-3.33h3.17v-2.38l-20.39-.08v2.38h2.62c1.83 0 2.94 1.03 3.65 3.33l11.82 40.63-1.19 3.81c-2.22 7.06-8.33 11.27-16.35 11.27v3.17h14.84l17.54-55.95c1.11-3.57 3.89-6.19 6.51-6.19h1.43V22.4h-16.03v.01zM90.54 2.17H67.29v2.38h3.65c1.9 0 3.17 1.27 3.17 3.17v55.71c0 1.9-1.27 3.17-3.17 3.17h-3.65v2.38h23.25c16.9 0 26.9-12.38 26.9-33.41 0-21.03-10-33.41-26.9-33.41v.01zm-1.19 63.96h-2.94c-1.59 0-2.38-.79-2.38-2.38V7.41c0-1.59.79-2.38 2.38-2.38h2.94c11.19 0 17.86 11.35 17.86 30.55 0 19.2-6.67 30.55-17.86 30.55zm144.1-2.69V34.95c0-8.25-4.44-13.09-12.06-13.09-4.21 0-7.86 2.06-9.92 5.63v-6.51l-14.68 2.22v2.38h2.78c1.9 0 3.17 1.27 3.17 3.17v34.68c0 1.9-1.27 3.17-3.17 3.17h-2.22v2.38h19.52V66.6h-2.22c-1.9 0-3.17-1.27-3.17-3.17V35.66c0-5.55 3.41-10.08 7.62-10.08 3.57 0 5.63 3.25 5.63 8.73v29.12c0 1.9-1.27 3.17-3.09 3.17h-2.3v2.38h19.52V66.6h-2.22c-1.9 0-3.17-1.27-3.17-3.17l-.02.01zm-53.66-41.59c-3.57 0-6.82 1.59-8.65 4.36V.18L156.46 2.4v2.62h2.78c1.9 0 3.17 1.27 3.17 3.17v60.79h2.78l4.05-7.14c1.59 4.76 5.48 7.62 10.55 7.62 9.76 0 15.47-8.81 15.47-23.81 0-15-5.71-23.81-15.47-23.81v.01zm-1.11 44.6c-4.76 0-7.54-4.52-7.54-12.14v-17.3c0-7.62 2.78-12.14 7.54-12.14s7.38 7.7 7.38 20.79-2.78 20.79-7.38 20.79z" fill="#2C3038"/><path d="M271.43 40.11c0-11.11-5.63-18.25-14.44-18.25-10 0-16.51 9.21-16.51 23.49 0 14.28 6.67 24.12 16.9 24.12 8.41 0 13.89-8.01 13.89-20.32h-3.17c0 10.4-3.89 17.06-9.92 17.06-5.16 0-8.49-8.65-8.49-21.98 0-1.44.04-2.82.13-4.13h21.62l-.01.01zm-14.52-15.24c3.41 0 5.55 4.92 5.55 12.46l-12.38-.07c.92-7.69 3.41-12.39 6.83-12.39zm-101.5 36.34c0 2.78-.87 4.36-2.3 4.36-1.27 0-2.06-1.03-2.06-2.78V36.52c0-8.89-6.03-14.68-14.68-14.68-4.05 0-8.41 1.59-11.82 4.29v11.9h3.02c1.59-8.41 4.84-13.33 8.81-13.33 3.73 0 5.95 3.57 5.95 9.6v2.06l-8.81 5.4c-8.73 5.32-12.7 10.55-12.7 16.59 0 6.98 4.21 11.11 11.35 11.11 4.29 0 8.09-2.06 10.16-5.55 1.59 3.49 4.84 5.55 8.81 5.55 4.68 0 7.46-3.49 7.46-9.36v-5.63h-3.17v6.75l-.02-.01zm-13.09-8.17c0 7.7-2.78 12.3-7.22 12.3-3.17 0-5.08-2.86-5.08-7.62 0-6.43 2.86-11.98 7.62-14.92l4.68-2.86v13.1zM.1 12.22h1.4c.66-5.98 2.03-8.71 4.36-8.71h.85c.92 0 1.48.59 1.48 1.59v25.58c0 .92-.55 1.48-1.48 1.48h-1.7v1.11h10.96v-1.11h-1.7c-.92 0-1.48-.55-1.48-1.48V5.1c0-1 .55-1.59 1.48-1.59h.85c2.33 0 3.69 2.73 4.36 8.71h1.4V2.18H.1v10.04zm56.66 7.6c0-5.17-2.62-8.49-6.72-8.49-4.65 0-7.68 4.28-7.68 10.93 0 6.65 3.1 11.22 7.86 11.22 3.91 0 6.46-3.73 6.46-9.45H55.2c0 4.84-1.81 7.94-4.61 7.94-2.4 0-3.95-4.02-3.95-10.23 0-.67.02-1.31.06-1.92h10.06zM50 12.73c1.59 0 2.58 2.29 2.58 5.8l-5.76-.03c.43-3.58 1.58-5.76 3.18-5.76v-.01zM39.01 30.68V17.43c0-3.84-2.07-6.09-5.61-6.09-1.96 0-3.69 1.03-4.61 2.62V1.37L21.96 2.4v1.11h1.29c.89 0 1.48.59 1.48 1.48v25.69c0 .92-.55 1.48-1.48 1.48h-1.03v1.11h9.08v-1.11h-1.03c-.92 0-1.48-.55-1.48-1.48V17.76c0-2.58 1.59-4.69 3.54-4.69 1.66 0 2.62 1.51 2.62 4.06v13.55c0 .92-.52 1.48-1.44 1.48h-1.07v1.11h9.08v-1.11h-1.03c-.92 0-1.48-.55-1.48-1.48z" fill="#2C3038"/></svg>