<svg id="Layer_1" data-name="Layer 1" xmlns="http://www.w3.org/2000/svg" viewBox="0 0 291.544 85.673"><title>martins-logo-1</title><line x1="13.818" y1="77.241" x2="75.615" y2="77.241" style="fill:#96694c;stroke:#96694c;stroke-linecap:round;stroke-linejoin:round;stroke-width:1.5230065198994px"/><line x1="22.372" y1="80.173" x2="75.615" y2="80.173" style="fill:#96694c;stroke:#96694c;stroke-linecap:round;stroke-linejoin:round;stroke-width:1.5230065198994px"/><line x1="274.847" y1="77.023" x2="213.05" y2="77.023" style="fill:#96694c;stroke:#96694c;stroke-linecap:round;stroke-linejoin:round;stroke-width:1.5230065198994px"/><line x1="266.293" y1="79.955" x2="213.05" y2="79.955" style="fill:#96694c;stroke:#96694c;stroke-linecap:round;stroke-linejoin:round;stroke-width:1.5230065198994px"/><path d="M48.672,71.789a2.734,2.734,0,0,0,1.432-.4.942.942,0,0,0,.276-.7V48.237l-.122-.122L39.4,71.789,28.657,47.869h-.121V70.691a.94.94,0,0,0,.273.7,2.734,2.734,0,0,0,1.435.4v.732H19.5v-.732a2.748,2.748,0,0,0,1.435-.4.94.94,0,0,0,.273-.7V42.255a.941.941,0,0,0-.273-.7,2.738,2.738,0,0,0-1.435-.4v-.732H35.43v.732c-.978.04-1.464.407-1.464,1.1a9.69,9.69,0,0,0,.365.979c.245.608.558,1.363.946,2.257s.814,1.859,1.281,2.9.916,2.036,1.343,2.989.8,1.8,1.13,2.533.548,1.221.67,1.465q1.035-2.318,2.135-4.514t1.984-4.027Q44.7,45,45.253,43.782a5.728,5.728,0,0,0,.551-1.527q0-1.035-1.465-1.1v-.732H60.875v.732a2.724,2.724,0,0,0-1.435.4.949.949,0,0,0-.273.7V70.691a.948.948,0,0,0,.273.7,2.734,2.734,0,0,0,1.435.4v.732h-12.2Z" transform="translate(-18.253 -14.577)" style="fill:#fff;stroke:#fff;stroke-miterlimit:10;stroke-width:2.5px"/><path d="M77.406,71.178a.527.527,0,0,0,.213.459,1.7,1.7,0,0,0,.887.152v.732h-10.8v-.732a2,2,0,0,0,.976-.4,2.9,2.9,0,0,0,.611-1.006c.079-.2.283-.752.608-1.649s.752-2.023,1.281-3.386,1.12-2.878,1.771-4.546,1.3-3.365,1.954-5.095,1.291-3.416,1.921-5.063,1.19-3.123,1.679-4.424.884-2.359,1.189-3.173.457-1.242.457-1.281c0-.2-.132-.345-.4-.427a5.248,5.248,0,0,0-.822-.184v-.732H94.858v.732a3.224,3.224,0,0,0-.8.184c-.2.082-.3.283-.3.608a13.558,13.558,0,0,0,.579,1.587q.581,1.467,1.5,3.813t2.1,5.311q1.191,2.956,2.47,6.041t2.473,6.008q1.188,2.931,2.165,5.249a6.048,6.048,0,0,0,.825,1.465,1.145,1.145,0,0,0,.884.365v.732H94.736v-.732c.772-.04,1.16-.283,1.16-.733a7.555,7.555,0,0,0-.306-.824c-.2-.506-.427-1.077-.67-1.708s-.479-1.229-.7-1.8a8.477,8.477,0,0,1-.4-1.16H79.36q-.61,1.65-.978,2.687c-.244.69-.437,1.241-.579,1.646s-.243.7-.3.886A1.422,1.422,0,0,0,77.406,71.178ZM92.233,60.683,86.314,46.161l-5.43,14.522Z" transform="translate(-18.253 -14.577)" style="fill:#fff;stroke:#fff;stroke-miterlimit:10;stroke-width:2.5px"/><path d="M123.229,70.691a.942.942,0,0,0,.276.7,2.734,2.734,0,0,0,1.432.4v.732H112.369v-.732a2.738,2.738,0,0,0,1.433-.4.942.942,0,0,0,.275-.7V42.255a.943.943,0,0,0-.275-.7,2.729,2.729,0,0,0-1.433-.4v-.732H134.7q6.774,0,9.825,2.47t3.051,7.66a8.725,8.725,0,0,1-2.47,6.589,14.263,14.263,0,0,1-6.255,3.416l7.2,10.13a2.1,2.1,0,0,0,1.767,1.1v.732H135.13v-.732q1.339-.06,1.34-1.1a3.357,3.357,0,0,0-.486-.854c-.328-.489-.733-1.077-1.222-1.77s-1.028-1.435-1.616-2.227-1.16-1.557-1.708-2.289S130.41,62.17,130,61.6s-.67-.956-.792-1.159h-5.981Zm10.252-16.719q2.685,0,3.692-1.008a3.248,3.248,0,0,0,0-4.7q-1.01-1.005-3.692-1H123.229v6.711Z" transform="translate(-18.253 -14.577)" style="fill:#fff;stroke:#fff;stroke-miterlimit:10;stroke-width:2.5px"/><path d="M164.233,71.789a2.749,2.749,0,0,0,1.436-.4.944.944,0,0,0,.273-.7V47.869h-10.5a.855.855,0,0,0-.733.335,3.305,3.305,0,0,0-.365,1.373h-.732V38.717h.732a3.275,3.275,0,0,0,.365,1.373.848.848,0,0,0,.733.336h30.144a.847.847,0,0,0,.732-.336,3.26,3.26,0,0,0,.365-1.373h.733v10.86h-.733a3.29,3.29,0,0,0-.365-1.373.853.853,0,0,0-.732-.335H175.1V70.691a.952.952,0,0,0,.273.7,2.748,2.748,0,0,0,1.435.4v.732H164.233Z" transform="translate(-18.253 -14.577)" style="fill:#fff;stroke:#fff;stroke-miterlimit:10;stroke-width:2.5px"/><path d="M195.048,71.789a2.748,2.748,0,0,0,1.435-.4.952.952,0,0,0,.273-.7V42.255a.953.953,0,0,0-.273-.7,2.738,2.738,0,0,0-1.435-.4v-.732h12.571v.732a2.724,2.724,0,0,0-1.435.4.941.941,0,0,0-.273.7V70.691a.94.94,0,0,0,.273.7,2.734,2.734,0,0,0,1.435.4v.732H195.048Z" transform="translate(-18.253 -14.577)" style="fill:#fff;stroke:#fff;stroke-miterlimit:10;stroke-width:2.5px"/><path d="M217.319,42.255a.946.946,0,0,0-.275-.7,2.729,2.729,0,0,0-1.433-.4v-.732h14.7v.732a3.2,3.2,0,0,0-1.37.276.609.609,0,0,0-.338.516,5.291,5.291,0,0,0,.8,1.1q.793.975,2.073,2.441t2.9,3.264q1.615,1.8,3.265,3.6t3.173,3.416q1.522,1.617,2.622,2.776V42.255c0-.69-.427-1.057-1.281-1.1v-.732h11.168v.732a2.732,2.732,0,0,0-1.436.4.946.946,0,0,0-.275.7V70.691a.946.946,0,0,0,.275.7,2.742,2.742,0,0,0,1.436.4v.732H241.726v-.732a2.273,2.273,0,0,0,1.129-.184.555.555,0,0,0,.273-.487.893.893,0,0,0-.181-.459,10.092,10.092,0,0,0-.794-.943q-.61-.675-1.8-1.925t-3.141-3.354q-1.956-2.108-4.822-5.249T225.5,51.531v19.16a.942.942,0,0,0,.276.7,2.723,2.723,0,0,0,1.432.4v.732H215.611v-.732a2.738,2.738,0,0,0,1.433-.4.946.946,0,0,0,.275-.7Z" transform="translate(-18.253 -14.577)" style="fill:#fff;stroke:#fff;stroke-miterlimit:10;stroke-width:2.5px"/><path d="M258.567,53.85a12.928,12.928,0,0,0,3.508-2.046,5.725,5.725,0,0,0,2.043-3.446,7.086,7.086,0,0,1-4.057-1.129,4.121,4.121,0,0,1-1.678-3.692,4.062,4.062,0,0,1,1.527-3.355,5.493,5.493,0,0,1,3.538-1.221,4.458,4.458,0,0,1,3.935,1.8A7.24,7.24,0,0,1,268.635,45a8.388,8.388,0,0,1-.884,3.906,11.511,11.511,0,0,1-2.289,3.051,13.774,13.774,0,0,1-3.235,2.287,25.213,25.213,0,0,1-3.66,1.557Z" transform="translate(-18.253 -14.577)" style="fill:#fff;stroke:#fff;stroke-miterlimit:10;stroke-width:2.5px"/><path d="M278.4,60.134a4.567,4.567,0,0,0-.122,1.282c0,.407.375.864,1.13,1.373a13.927,13.927,0,0,0,2.927,1.435,26.649,26.649,0,0,0,4.119,1.127,24.193,24.193,0,0,0,4.7.459,15.854,15.854,0,0,0,6.713-1.067A3.347,3.347,0,0,0,300,61.659q0-1.095-1.863-1.554a33.787,33.787,0,0,0-4.667-.733q-2.808-.276-6.041-.611a30.583,30.583,0,0,1-6.041-1.219,12.464,12.464,0,0,1-4.668-2.564,5.886,5.886,0,0,1-1.859-4.606,8.412,8.412,0,0,1,1.067-4.211,9.812,9.812,0,0,1,2.99-3.233,15.185,15.185,0,0,1,4.667-2.1,22.753,22.753,0,0,1,6.1-.762,39.943,39.943,0,0,1,5.795.394q2.685.4,4.76.887t3.478.884a8.553,8.553,0,0,0,2.014.4,1.581,1.581,0,0,0,.976-.276,4.1,4.1,0,0,0,.673-.64l.67.243-4.211,8.481-.732-.365V49.4c0-.367-.4-.742-1.19-1.13a15.829,15.829,0,0,0-3.019-1.037,37.8,37.8,0,0,0-4.089-.763,32.874,32.874,0,0,0-4.4-.3q-3.966,0-5.551.916t-1.587,1.952a1.664,1.664,0,0,0,1.1,1.556,10.027,10.027,0,0,0,2.871.763q1.768.245,4.027.4t4.635.457a42.55,42.55,0,0,1,4.638.854,14.257,14.257,0,0,1,4.027,1.619,8.577,8.577,0,0,1,2.868,2.805,8.026,8.026,0,0,1,1.1,4.363,10.147,10.147,0,0,1-.824,3.967,8.893,8.893,0,0,1-2.808,3.508,14.985,14.985,0,0,1-5.309,2.471,31.65,31.65,0,0,1-8.268.916,51.305,51.305,0,0,1-6.619-.367,38.275,38.275,0,0,1-4.73-.884q-1.954-.517-3.081-.946a5.4,5.4,0,0,0-1.678-.427.944.944,0,0,0-.641.243c-.184.164-.377.348-.578.549l-.733-.182,4.514-10.862Z" transform="translate(-18.253 -14.577)" style="fill:#fff;stroke:#fff;stroke-miterlimit:10;stroke-width:2.5px"/><path d="M130.591,14.712h4.588v1.4h-2.6V19.26h2.051v1.39h-2.051v3.63h2.632v1.364h-4.616Z" transform="translate(-18.253 -14.577)" style="fill:#fff"/><path d="M137.575,24.955a3.933,3.933,0,0,1-.8-2.5l1.714-.338a3.8,3.8,0,0,0,.331,1.586.964.964,0,0,0,.911.546.825.825,0,0,0,.682-.276,1.162,1.162,0,0,0,.222-.749,1.991,1.991,0,0,0-.29-1.1,4.918,4.918,0,0,0-.911-.992l-1.376-1.2a3.821,3.821,0,0,1-.952-1.161,3.231,3.231,0,0,1-.317-1.484,2.611,2.611,0,0,1,.749-1.991,2.894,2.894,0,0,1,2.071-.709,2.4,2.4,0,0,1,2.032.8,3.948,3.948,0,0,1,.708,2.166l-1.714.3a3.729,3.729,0,0,0-.249-1.342.811.811,0,0,0-.817-.452.827.827,0,0,0-.674.29,1.107,1.107,0,0,0-.244.735,1.729,1.729,0,0,0,.209.884,3.167,3.167,0,0,0,.682.763l1.363,1.2a5.471,5.471,0,0,1,1.2,1.417,3.481,3.481,0,0,1,.431,1.754,2.78,2.78,0,0,1-.344,1.391,2.465,2.465,0,0,1-.965.951,2.908,2.908,0,0,1-1.431.344A2.8,2.8,0,0,1,137.575,24.955Z" transform="translate(-18.253 -14.577)" style="fill:#fff"/><path d="M145.477,16.183h-1.742V14.712h5.439v1.471h-1.7v9.461h-2Z" transform="translate(-18.253 -14.577)" style="fill:#fff"/><path d="M150.848,14.712h2.577a4.955,4.955,0,0,1,2.079.358,2.1,2.1,0,0,1,1.073,1.093,5,5,0,0,1,.317,1.95v3.981a5.359,5.359,0,0,1-.317,2.011,2.216,2.216,0,0,1-1.06,1.154,4.411,4.411,0,0,1-2.011.385h-2.658Zm2.6,9.541a1.584,1.584,0,0,0,.959-.229,1.035,1.035,0,0,0,.378-.641,6.932,6.932,0,0,0,.08-1.221V17.978a4.887,4.887,0,0,0-.094-1.107.871.871,0,0,0-.4-.56,1.919,1.919,0,0,0-.952-.182h-.593v8.124Z" transform="translate(-18.253 -14.577)" style="fill:#fff"/><path d="M158.85,23.794h1.781v1.85H158.85Z" transform="translate(-18.253 -14.577)" style="fill:#fff"/><path d="M167.812,16.777a4.778,4.778,0,0,1-.985.31c-.459.135-.694.207-.7.216v-1.39a9.429,9.429,0,0,0,1.181-.519,3.088,3.088,0,0,0,.938-.682h1.444V25.644h-1.876Z" transform="translate(-18.253 -14.577)" style="fill:#fff"/><path d="M173.1,25.1a3.008,3.008,0,0,1-.681-2.072v-.162h1.8a2.363,2.363,0,0,0,.195,1.12.805.805,0,0,0,.763.338.743.743,0,0,0,.735-.506,5.059,5.059,0,0,0,.21-1.748v-1.3a1.238,1.238,0,0,1-.581.5,2.265,2.265,0,0,1-.931.175q-2.295,0-2.295-3.212a4.582,4.582,0,0,1,.682-2.678,2.467,2.467,0,0,1,2.166-.966,2.51,2.51,0,0,1,2.16.952,4.245,4.245,0,0,1,.7,2.571v3.873a5.213,5.213,0,0,1-.64,2.794,2.422,2.422,0,0,1-2.221,1.012A2.707,2.707,0,0,1,173.1,25.1Zm3.017-5.661v-1.7a3.072,3.072,0,0,0-.21-1.255.828.828,0,0,0-1.5.034,3.817,3.817,0,0,0-.209,1.437,10.342,10.342,0,0,0,.048,1.154,1.252,1.252,0,0,0,.256.668.812.812,0,0,0,.668.256A1.043,1.043,0,0,0,176.112,19.436Z" transform="translate(-18.253 -14.577)" style="fill:#fff"/><path d="M179.971,22.674V22.3h1.849v.325a2.938,2.938,0,0,0,.236,1.228.8.8,0,0,0,.777.391.788.788,0,0,0,.782-.411,3.123,3.123,0,0,0,.2-1.3,2.6,2.6,0,0,0-.284-1.35,1.164,1.164,0,0,0-1-.5h-.311v-1.5h.283a1.24,1.24,0,0,0,1.019-.391,2.071,2.071,0,0,0,.291-1.242,2.159,2.159,0,0,0-.223-1.106.85.85,0,0,0-.79-.365.773.773,0,0,0-.756.391,2.849,2.849,0,0,0-.229,1.161v.392h-1.849v-.513a2.994,2.994,0,0,1,.736-2.167,2.783,2.783,0,0,1,2.1-.762,2.85,2.85,0,0,1,2.126.749,2.928,2.928,0,0,1,.736,2.139,2.907,2.907,0,0,1-.4,1.586,1.822,1.822,0,0,1-1.046.816,1.944,1.944,0,0,1,1.06.871,3.385,3.385,0,0,1,.385,1.747,3.9,3.9,0,0,1-.682,2.443,2.572,2.572,0,0,1-2.166.878Q179.971,25.806,179.971,22.674Z" transform="translate(-18.253 -14.577)" style="fill:#fff"/><path d="M187.339,22.674V22.3h1.849v.325a2.954,2.954,0,0,0,.236,1.228.8.8,0,0,0,.777.391.788.788,0,0,0,.782-.411,3.123,3.123,0,0,0,.2-1.3,2.6,2.6,0,0,0-.284-1.35,1.164,1.164,0,0,0-1-.5h-.311v-1.5h.283a1.24,1.24,0,0,0,1.019-.391,2.071,2.071,0,0,0,.291-1.242,2.159,2.159,0,0,0-.223-1.106.85.85,0,0,0-.79-.365.773.773,0,0,0-.756.391,2.865,2.865,0,0,0-.229,1.161v.392h-1.849v-.513a2.994,2.994,0,0,1,.736-2.167,2.783,2.783,0,0,1,2.1-.762,2.85,2.85,0,0,1,2.126.749,2.924,2.924,0,0,1,.736,2.139,2.907,2.907,0,0,1-.4,1.586,1.819,1.819,0,0,1-1.046.816,1.94,1.94,0,0,1,1.06.871,3.385,3.385,0,0,1,.385,1.747,3.9,3.9,0,0,1-.682,2.443,2.572,2.572,0,0,1-2.166.878Q187.34,25.806,187.339,22.674Z" transform="translate(-18.253 -14.577)" style="fill:#fff"/><path d="M113.3,88.84h-4.671V85.962h12.72V88.84h-4.671v11.308H113.3Z" transform="translate(-18.253 -14.577)" style="fill:#fff"/><path d="M130.518,85.861h3.115l6.579,14.287h-3.531l-1.4-3.181h-6.492l-1.4,3.181h-3.444Zm3.553,8.349-2.04-4.6-2.039,4.6Z" transform="translate(-18.253 -14.577)" style="fill:#fff"/><path d="M142.365,85.962h3.728l4.014,9.991,4.013-9.991h3.641l-6.207,14.288h-2.983Z" transform="translate(-18.253 -14.577)" style="fill:#fff"/><path d="M163.424,85.962H175v2.776h-8.225v2.878h7.238v2.777h-7.238v2.979h8.335v2.776h-11.69Z" transform="translate(-18.253 -14.577)" style="fill:#fff"/><path d="M181.411,85.962h7.019A6.426,6.426,0,0,1,192.9,87.4a4.27,4.27,0,0,1,1.316,3.242v.041a4.442,4.442,0,0,1-3.29,4.4l3.75,5.066h-3.947l-3.29-4.539h-2.654v4.539h-3.378Zm6.8,6.891c1.645,0,2.588-.811,2.588-2.007v-.04c0-1.338-1.009-2.027-2.653-2.027h-3.356v4.074Z" transform="translate(-18.253 -14.577)" style="fill:#fff"/><path d="M200.562,85.962h3.114L210.87,94.7V85.962H214.2v14.186h-2.873L203.9,91.13v9.018h-3.334Z" transform="translate(-18.253 -14.577)" style="fill:#fff"/><path d="M48.663,71.747a2.729,2.729,0,0,0,1.433-.4.943.943,0,0,0,.275-.7V48.2l-.121-.122L39.387,71.747,28.649,47.827h-.122V70.65a.942.942,0,0,0,.273.7,2.731,2.731,0,0,0,1.435.4v.733H19.5v-.733a2.738,2.738,0,0,0,1.435-.4.942.942,0,0,0,.273-.7V42.214a.949.949,0,0,0-.273-.7,2.748,2.748,0,0,0-1.435-.4v-.732H35.422v.732q-1.467.06-1.465,1.1a10.166,10.166,0,0,0,.365.978c.246.608.559,1.363.946,2.257s.815,1.859,1.281,2.9.916,2.036,1.344,2.99.8,1.8,1.129,2.532.549,1.222.671,1.465q1.035-2.316,2.135-4.514t1.984-4.027q.882-1.833,1.432-3.051a5.713,5.713,0,0,0,.551-1.527q0-1.036-1.464-1.1v-.732H60.866v.732a2.741,2.741,0,0,0-1.435.4.957.957,0,0,0-.273.7V70.65a.95.95,0,0,0,.273.7,2.731,2.731,0,0,0,1.435.4v.733h-12.2Z" transform="translate(-18.253 -14.577)" style="fill:#96694c"/><path d="M77.4,71.136a.528.528,0,0,0,.214.46,1.709,1.709,0,0,0,.886.151v.733H67.7v-.733a1.99,1.99,0,0,0,.976-.4,2.9,2.9,0,0,0,.61-1.006q.12-.3.609-1.648t1.281-3.387q.793-2.041,1.77-4.546T74.9,55.668q.972-2.592,1.922-5.062T78.5,46.181q.73-1.951,1.19-3.173c.305-.814.456-1.241.456-1.281,0-.2-.131-.345-.4-.427a5.223,5.223,0,0,0-.822-.184v-.732H94.849v.732a3.215,3.215,0,0,0-.794.184c-.2.082-.3.283-.3.608A13.425,13.425,0,0,0,94.33,43.5q.582,1.467,1.5,3.813t2.106,5.311q1.191,2.958,2.47,6.041t2.473,6.008q1.188,2.931,2.165,5.249a6.034,6.034,0,0,0,.824,1.465,1.146,1.146,0,0,0,.884.365v.733H94.728v-.733q1.158-.06,1.159-.732a7.535,7.535,0,0,0-.305-.825c-.2-.506-.427-1.077-.671-1.708s-.479-1.229-.7-1.8a8.2,8.2,0,0,1-.4-1.159H79.351q-.611,1.649-.978,2.686c-.243.69-.437,1.241-.578,1.646s-.244.7-.306.887A1.41,1.41,0,0,0,77.4,71.136ZM92.225,60.641,86.306,46.119l-5.43,14.522Z" transform="translate(-18.253 -14.577)" style="fill:#96694c"/><path d="M123.221,70.65a.943.943,0,0,0,.275.7,2.729,2.729,0,0,0,1.433.4v.733H112.361v-.733a2.721,2.721,0,0,0,1.432-.4.94.94,0,0,0,.276-.7V42.214a.947.947,0,0,0-.276-.7,2.73,2.73,0,0,0-1.432-.4v-.732h22.331q6.774,0,9.824,2.47t3.052,7.66A8.724,8.724,0,0,1,145.1,57.1a14.265,14.265,0,0,1-6.254,3.417l7.2,10.13a2.106,2.106,0,0,0,1.768,1.1v.733h-12.69v-.733q1.341-.06,1.341-1.1a3.307,3.307,0,0,0-.487-.854c-.327-.49-.732-1.078-1.221-1.771s-1.028-1.435-1.617-2.227-1.159-1.557-1.708-2.289-1.028-1.38-1.435-1.952-.67-.955-.792-1.159h-5.981Zm10.252-16.72q2.685,0,3.692-1.008a3.247,3.247,0,0,0,0-4.7q-1.01-1.006-3.692-1.006H123.221V53.93Z" transform="translate(-18.253 -14.577)" style="fill:#96694c"/><path d="M164.225,71.747a2.738,2.738,0,0,0,1.435-.4.938.938,0,0,0,.273-.7V47.827h-10.5a.857.857,0,0,0-.732.335,3.29,3.29,0,0,0-.365,1.374h-.733V38.676h.733a3.27,3.27,0,0,0,.365,1.373.85.85,0,0,0,.732.335h30.145a.85.85,0,0,0,.732-.335,3.285,3.285,0,0,0,.365-1.373h.732v10.86h-.732a3.306,3.306,0,0,0-.365-1.374.857.857,0,0,0-.732-.335h-10.5V70.65a.946.946,0,0,0,.273.7,2.735,2.735,0,0,0,1.435.4v.733H164.225Z" transform="translate(-18.253 -14.577)" style="fill:#96694c"/><path d="M195.04,71.747a2.738,2.738,0,0,0,1.435-.4.95.95,0,0,0,.273-.7V42.214a.957.957,0,0,0-.273-.7,2.748,2.748,0,0,0-1.435-.4v-.732h12.57v.732a2.741,2.741,0,0,0-1.435.4.949.949,0,0,0-.273.7V70.65a.942.942,0,0,0,.273.7,2.731,2.731,0,0,0,1.435.4v.733H195.04Z" transform="translate(-18.253 -14.577)" style="fill:#96694c"/><path d="M217.311,42.214a.947.947,0,0,0-.276-.7,2.73,2.73,0,0,0-1.432-.4v-.732h14.7v.732a3.2,3.2,0,0,0-1.37.276.609.609,0,0,0-.338.516,5.277,5.277,0,0,0,.794,1.1q.793.976,2.074,2.441t2.9,3.265q1.615,1.8,3.264,3.6T240.8,55.73q1.522,1.617,2.621,2.776V42.214q0-1.036-1.281-1.1v-.732h11.168v.732a2.741,2.741,0,0,0-1.435.4.947.947,0,0,0-.276.7V70.65a.94.94,0,0,0,.276.7,2.731,2.731,0,0,0,1.435.4v.733H241.717v-.733a2.278,2.278,0,0,0,1.13-.184.554.554,0,0,0,.273-.486.9.9,0,0,0-.181-.46,10.154,10.154,0,0,0-.795-.943q-.611-.675-1.8-1.924T237.2,64.4q-1.954-2.107-4.821-5.248t-6.9-7.657V70.65a.943.943,0,0,0,.275.7,2.722,2.722,0,0,0,1.433.4v.733H215.6v-.733a2.721,2.721,0,0,0,1.432-.4.94.94,0,0,0,.276-.7Z" transform="translate(-18.253 -14.577)" style="fill:#96694c"/><path d="M258.558,53.808a12.956,12.956,0,0,0,3.509-2.045,5.729,5.729,0,0,0,2.043-3.447,7.076,7.076,0,0,1-4.057-1.129,4.119,4.119,0,0,1-1.678-3.692A4.062,4.062,0,0,1,259.9,40.14a5.49,5.49,0,0,1,3.538-1.221,4.458,4.458,0,0,1,3.935,1.8,7.249,7.249,0,0,1,1.251,4.241,8.372,8.372,0,0,1-.884,3.905,11.511,11.511,0,0,1-2.289,3.052,13.779,13.779,0,0,1-3.235,2.286,25.167,25.167,0,0,1-3.66,1.557Z" transform="translate(-18.253 -14.577)" style="fill:#96694c"/><path d="M278.391,60.093a4.564,4.564,0,0,0-.121,1.281q0,.61,1.129,1.373a13.937,13.937,0,0,0,2.928,1.435,26.538,26.538,0,0,0,4.119,1.127,24.19,24.19,0,0,0,4.7.459,15.856,15.856,0,0,0,6.714-1.067,3.346,3.346,0,0,0,2.135-3.084q0-1.095-1.862-1.554a33.8,33.8,0,0,0-4.668-.733q-2.808-.275-6.04-.61a30.64,30.64,0,0,1-6.041-1.22,12.442,12.442,0,0,1-4.668-2.564,5.885,5.885,0,0,1-1.86-4.606,8.4,8.4,0,0,1,1.068-4.211,9.809,9.809,0,0,1,2.989-3.233,15.181,15.181,0,0,1,4.668-2.105,22.748,22.748,0,0,1,6.1-.762,39.8,39.8,0,0,1,5.8.4q2.685.4,4.76.886t3.478.884a8.544,8.544,0,0,0,2.014.4,1.576,1.576,0,0,0,.975-.276,4.06,4.06,0,0,0,.673-.64l.671.243-4.211,8.482-.733-.365v-.671c0-.367-.395-.742-1.189-1.129a15.755,15.755,0,0,0-3.019-1.038,37.659,37.659,0,0,0-4.089-.762,32.713,32.713,0,0,0-4.395-.306q-3.966,0-5.552.916t-1.586,1.952a1.664,1.664,0,0,0,1.1,1.557,10.022,10.022,0,0,0,2.87.762q1.77.246,4.027.4t4.636.457a42.638,42.638,0,0,1,4.638.854,14.257,14.257,0,0,1,4.027,1.619,8.6,8.6,0,0,1,2.868,2.805,8.034,8.034,0,0,1,1.1,4.363,10.13,10.13,0,0,1-.825,3.967,8.894,8.894,0,0,1-2.808,3.509,15,15,0,0,1-5.308,2.47,31.65,31.65,0,0,1-8.268.916,51.115,51.115,0,0,1-6.619-.367,38.275,38.275,0,0,1-4.73-.884q-1.956-.518-3.081-.946a5.409,5.409,0,0,0-1.679-.427.941.941,0,0,0-.64.243c-.184.164-.378.348-.579.549l-.732-.181,4.514-10.863Z" transform="translate(-18.253 -14.577)" style="fill:#96694c"/></svg>