<?xml version="1.0" encoding="utf-8"?>
<!-- Generator: Adobe Illustrator 26.4.1, SVG Export Plug-In . SVG Version: 6.00 Build 0)  -->
<svg version="1.1" id="Layer_1" xmlns="http://www.w3.org/2000/svg" xmlns:xlink="http://www.w3.org/1999/xlink" x="0px" y="0px"
	 viewBox="0 0 308.6 57.6" style="enable-background:new 0 0 308.6 57.6;" xml:space="preserve">
<style type="text/css">
	.st0{fill:#574741;}
</style>
<g>
	<path class="st0" d="M19.2,40.3h0.2l5.9-39.6h12.2v55.7h-8.3v-40H29l-5.9,40h-8.3L8.5,17.1H8.3v39.4H0.7V0.8h12.2L19.2,40.3z"/>
	<path class="st0" d="M64.1,56.5c-0.5-1.4-0.8-2.3-0.8-6.8v-8.8c0-5.2-1.8-7.1-5.7-7.1h-3v22.7h-8.8V0.8H59c9.1,0,13,4.2,13,12.8V18
		c0,5.7-1.8,9.4-5.7,11.2v0.2c4.4,1.8,5.8,6,5.8,11.8v8.6c0,2.7,0.1,4.7,1,6.8H64.1z M54.6,8.7v17.1H58c3.3,0,5.3-1.4,5.3-5.9v-5.5
		c0-4-1.4-5.7-4.5-5.7H54.6z"/>
	<path class="st0" d="M88.2,48v8.4h-8.4V48H88.2z"/>
	<path class="st0" d="M105.3,56.5h-8.8V0.8h8.8v23.9h9.9V0.8h8.9v55.7h-8.9V32.6h-9.9V56.5z"/>
	<path class="st0" d="M141.3,24.3h12v8h-12v16.3h15.1v8h-23.9V0.8h23.9v8h-15.1V24.3z"/>
	<path class="st0" d="M171.8,16.1h-0.2v40.4h-7.9V0.8h11l8.8,33.3h0.2V0.8h7.8v55.7h-9L171.8,16.1z"/>
	<path class="st0" d="M218.1,56.5c-0.5-1.4-0.8-2.3-0.8-6.8v-8.8c0-5.2-1.8-7.1-5.7-7.1h-3v22.7h-8.8V0.8H213c9.1,0,13,4.2,13,12.8
		V18c0,5.7-1.8,9.4-5.7,11.2v0.2c4.4,1.8,5.8,6,5.8,11.8v8.6c0,2.7,0.1,4.7,1,6.8H218.1z M208.6,8.7v17.1h3.4c3.3,0,5.3-1.4,5.3-5.9
		v-5.5c0-4-1.4-5.7-4.5-5.7H208.6z"/>
	<path class="st0" d="M241.2,38L230.2,0.8h9.2l6.6,25.4h0.2l6.6-25.4h8.4L250,38v18.5h-8.8V38z"/>
	<path class="st0" d="M266.5,9.2V0.8h8.4v7.6l-3.8,8.8h-3.6l2.3-8H266.5z"/>
	<path class="st0" d="M294.7,0.1c8.5,0,12.9,5.1,12.9,14v1.8h-8.3v-2.3c0-4-1.6-5.5-4.4-5.5c-2.8,0-4.4,1.5-4.4,5.5
		c0,4.1,1.8,7.1,7.5,12.1c7.3,6.4,9.6,11.1,9.6,17.4c0,8.9-4.5,14-13.1,14c-8.6,0-13.1-5.1-13.1-14v-3.4h8.3v4c0,4,1.8,5.4,4.5,5.4
		c2.8,0,4.5-1.4,4.5-5.4c0-4.1-1.8-7.1-7.5-12.1c-7.3-6.4-9.6-11.1-9.6-17.4C281.8,5.2,286.2,0.1,294.7,0.1z"/>
</g>
</svg>
