<?xml version="1.0" encoding="utf-8"?>
<svg xmlns="http://www.w3.org/2000/svg" xmlns:xlink="http://www.w3.org/1999/xlink" width="256px" height="32px" viewBox="0 0 256 32" version="1.1">
    
    <desc>Created with Sketch.</desc>
    <defs/>
    <g id="Symbols" stroke="none" stroke-width="1" fill="none" fill-rule="evenodd">
        <g id="Navigation" transform="translate(-6.000000, -24.000000)" fill="#10329B">
            <g transform="translate(6.000000, 0.000000)" id="LOGO">
                <g transform="translate(0.000000, 24.000000)">
                    <polygon id="Fill-1" points="0 0.697962264 0 2.66716981 17.6321118 2.66716981 0 30.4045283 0 31.1701132 23.8515111 31.1701132 23.8515111 29.2012075 5.67878929 29.2012075 23.8515111 0.697962264"/>
                    <polygon id="Fill-2" points="47.3686724 0.000241509434 35.274386 31.1694491 37.3816922 31.1694491 41.3477551 20.9985811 42.0847609 19.0278642 46.7753127 6.97322264 51.3350333 19.0278642 52.1113779 20.9985811 55.9469076 31.1694491 60.2393034 31.1694491 48.4129378 0.000241509434"/>
                    <polygon id="Fill-3" points="73.1562766 0.698083019 81.8641509 16.1420075 90.5356666 0.698083019 92.8250636 0.698083019 83.089613 18.0010264 83.089613 31.1693283 78.8714244 31.1693283 78.8714244 18.482234 68.8293104 0.698083019"/>
                    <polygon id="Fill-4" points="127.104924 0.698083019 127.104924 2.66668679 118.018265 2.66668679 118.018265 31.1693283 113.799778 31.1693283 113.799778 2.66668679 104.695238 2.66668679 104.695238 0.698083019"/>
                    <polygon id="Fill-5" points="142.057648 31.1692075 146.276433 31.1692075 146.276433 0.697962264 142.057648 0.697962264"/>
                    <polygon id="Fill-6" points="182.647387 0.697962264 182.647387 22.9672453 182.484668 22.9672453 166.02497 0.697962264 163.662856 0.697962264 163.662856 31.1701132 165.555885 31.1701132 165.555885 7.10732075 165.700426 7.10732075 183.530721 31.8916226 184.504058 31.8916226 184.504058 0.697962264"/>
                    <polygon id="Fill-7" points="203.116718 0.698083019 211.824592 16.1420075 220.49581 0.698083019 222.785505 0.698083019 213.050054 18.0010264 213.050054 31.1693283 208.831866 31.1693283 208.831866 18.482234 198.789752 0.698083019"/>
                    <polygon id="Fill-8" points="243.12928 0.000241509434 231.034993 31.1694491 233.142299 31.1694491 237.108064 20.9985811 237.845666 19.0278642 242.53592 6.97322264 247.095641 19.0278642 247.871985 20.9985811 251.707813 31.1694491 255.999911 31.1694491 244.173247 0.000241509434"/>
                </g>
            </g>
        </g>
    </g>
</svg>